<svg xmlns="http://www.w3.org/2000/svg" viewBox="0 0 500 500" version="1.1" width="250" height="250">
	<path d="M 221.5 51.475406300890775 C 203.9913511937628 53.878403494857565, 175.83156975754605 62.46015466429141, 163.75 69.07483728927944 C 161.6875 70.20405999690952, 160 70.80443194790169, 160 70.40899718037315 C 160 70.0135624128446, 159.2125 70.37231425190808, 158.25 71.20622348940309 C 157.2875 72.0401327268981, 154.25 73.99168537040902, 151.5 75.54300714164958 C 142.80677115901275 80.44700538288592, 126.56343627990502 91.33542744302846, 124.91195221502633 93.36581804794878 C 123.30664565440406 95.33943646063615, 120.3798280827057 94.81247623542534, 121.63819660112495 92.77639320225006 C 122.04823925680654 92.11293024851996, 121.84133139312401 91.98002860324708, 121.10595019168727 92.43451918042271 C 120.2388578935071 92.97041169208131, 120.2031672716624 93.53987529907994, 120.97814822536961 94.47367022232467 C 121.79501365820356 95.45793285549722, 121.06573437382491 96.57802199750734, 117.9434339046138 99.13464254471452 C 115.68294536819464 100.98558914512154, 113.42092742930366 102.3875000000004, 112.91672737374495 102.2500000000009 C 112.41252731818622 102.11250000000139, 112.1125000000014 102.3382071814855, 112.25000000000091 102.75157151441005 C 112.64999027989947 103.95405671606217, 105.81698509728943 111.00492455842702, 104.83800986518627 110.39988459084294 C 104.3498501907411 110.09818532009874, 104.07409628607388 110.23103338184963, 104.22522341037025 110.69510250584491 C 104.6803958003352 112.09280959027038, 95.8086032505895 121.99974429227797, 94.70986861730778 121.32068894429324 C 94.13886120348332 120.96778695472155, 93.99472291495492 121.18244450266066, 94.38196601125009 121.80901699437496 C 94.76200666434387 122.4239356881874, 94.15653548807823 123.84346451192175, 93.03647450843756 124.96352549156242 C 91.9164135287969 126.0835864712031, 91.24252981633855 127.00000000000001, 91.53895514741902 127.00000000000001 C 91.83538047849949 127.00000000000001, 91.13615536915636 128.01085525355114, 89.98512157110093 129.24634500789142 C 88.83408777304551 130.4818347622317, 86.46882481337586 133.7443347622317, 84.72898166072393 136.49634500789142 C 82.989138508072 139.24835525355115, 81.32514619599539 141.725, 81.03122096722034 142 C 80.73729573844528 142.275, 79.86720751139447 143.7221417354091, 79.09769157377409 145.21587052313137 C 78.3281756361537 146.70959931085363, 77.24686423383906 147.65257048711922, 76.69477734640823 147.31136202594382 C 76.11583858564016 146.95355819438439, 76.00237409271436 147.1948243683294, 76.42669797723839 147.88139483572763 C 76.8420503843952 148.55344914781637, 75.71185955513565 151.33229815805146, 73.83120647442594 154.26304190535495 C 71.99904291349168 157.11822128709346, 70.48101791324503 159.68956478728165, 70.45781758498896 159.97713857243977 C 70.43461725673289 160.2647123575979, 69.46837005496499 162.59014107578716, 68.3106015810603 165.14475794619366 C 67.1528331071556 167.69937481660017, 65.62757879938596 171.38791659413482, 64.92114756379442 173.3415174518262 C 64.21471632820288 175.2951183095176, 63.19893470623643 176.6229484099961, 62.66385507053563 176.2922510084451 C 62.128775434834836 175.9615536068941, 61.97100163005411 176.14406265743426, 62.31324661546735 176.6978266763121 C 62.65549160088059 177.25159069518995, 62.046270461463976 180.1336195189243, 60.95942186120821 183.10233517349954 C 54.06582954489326 201.9321109314919, 50.96415094715426 219.78539014567409, 50.29270788340679 244.5 C 49.78059048950787 263.3501189053702, 51.04791080059666 279.0915931797169, 54.39863435122555 295.5 C 55.24898182946036 299.6641296724881, 62.230347880512355 320.6884636405799, 64.1933936026052 324.99684748402956 C 65.32029748244801 327.47011360024584, 66.30029005452482 330.4644319651978, 66.37115487388698 331.65088829503384 C 66.44201969324914 332.83734462486984, 66.91397243493297 333.55244304559676, 67.4199387442955 333.23999589664913 C 67.94488042778968 332.91583096839895, 68.0295302068147 333.48066222360626, 67.6170860629697 334.55547443362894 C 67.219550778878 335.5914347779154, 67.21846932619012 336.1148640071334, 67.6146828347744 335.7186504985578 C 68.01089634335868 335.3224369899822, 69.76487754484636 337.8111532833894, 71.51241883808034 341.2491311505738 C 73.25996013131432 344.6871090177582, 76.1165601250764 349.8941595394715, 77.86041882421831 352.8203545321589 C 79.60427752336022 355.7465495248463, 80.76563163246679 358.57019899018167, 80.44120573334402 359.09513112179303 C 80.11677983422125 359.6200632534044, 80.44728885821408 359.92590371393294, 81.17567023110585 359.77477658963414 C 81.90405160399763 359.62364946533535, 82.38749999999892 360.0625, 82.2499999999976 360.75 C 82.11249999999627 361.43749999999994, 82.42838169464395 361.99999999999994, 82.95195932143686 361.99999999999994 C 84.1571944612561 361.99999999999994, 90.07995741157931 370.52920251323656, 89.46052826557133 371.3728050677523 C 89.20723771950709 371.71776228048856, 89.28473969542172 371.79026030457385, 89.63275487871492 371.533911787942 C 89.98077006200812 371.27756327131004, 91.19470906069395 372.29006327131003, 92.33039709801676 373.783911787942 C 93.46608513533957 375.27776030457386, 96.99566493803319 379.4731805018801, 100.17390777066925 383.1070677819558 C 103.3521506033053 386.74095506203145, 105.62571160461948 390.07560146061337, 105.2262655513674 390.51739311213777 C 104.82681949811533 390.95918476366217, 104.99927121355799 391.0360241534019, 105.60949158568441 390.6881473115594 C 106.21971195781083 390.3402704697169, 107.83402394610602 391.28062407113504, 109.19685155967369 392.77782198137743 C 112.84416176958416 396.78474491859936, 117.37851954757713 400.6689696194162, 128 408.8849880236145 C 133.225 412.92667471260546, 137.37635053466835 416.66441808515225, 137.2252234103741 417.1910844070518 C 137.07409628607988 417.7177507289513, 137.41594148856373 417.8609680114863, 137.98487941589377 417.5093450349075 C 139.23361348285334 416.7375849386166, 144.221691078311 420.44497558833126, 143.24656886407288 421.4200978025961 C 142.8694847060594 421.7971819606199, 143.40856522209623 421.7804492211143, 144.44452556637697 421.382913937028 C 145.85620350258304 420.84120228512336, 146.12301895863644 420.9919341492909, 145.50953641716515 421.98456975289594 C 144.9638410784498 422.86752335843954, 145.07723223010385 423.0703018455188, 145.84970122542583 422.5928897511543 C 147.34632775245254 421.667923688987, 155.11386195533893 426.00675049186117, 154.30482781308004 427.3157952320952 C 153.9672131689798 427.86206720134913, 154.1647002818585 428.0162436166047, 154.74368806392158 427.6584094882188 C 155.32267584598466 427.30057535983286, 158.87970466971902 428.5241397660747, 162.64819656110905 430.3774415020896 C 179.59494593180594 438.7116613793513, 202.2983012275316 445.6178567098872, 222.12833761458722 448.47086721174594 C 244.06461666465742 451.6269095547852, 281.69201037689834 449.67493987574375, 298.4148771144003 444.5134043813031 C 301.1180595273205 443.67906346408785, 303.551655353885 443.2183220205482, 303.8228678400992 443.4895345067706 C 304.0940803263135 443.76074699299295, 304.9141549037662 443.4862082456246, 305.64525578999417 442.87944840150766 C 306.37635667622214 442.2726885573907, 307.75404455624675 442.0753764374156, 308.7067844122711 442.4409770237853 C 309.6595242682954 442.80657761015493, 310.1053139166549 442.77198058333335, 309.6974280752921 442.3640947419595 C 309.2895422339294 441.95620890058564, 313.6278640428349 439.95728733226167, 319.3381432061932 437.9220468123507 C 334.6336961334687 432.470451854999, 354.0256928682074 422.3176271809745, 366.2942890551822 413.3378060714948 C 369.860789058071 410.72735810134304, 372.7443900888579 409.306667955257, 373.7942890551822 409.64271233908016 C 375.01810247352057 410.0344220552254, 375.1401728044616 409.92932351104184, 374.2263657687623 409.27070848504934 C 373.2372962043237 408.5578489299764, 373.4048666848155 407.94357581015254, 374.97636576876226 406.5213886853101 C 376.089364595943 405.51413859006624, 376.9999999999999 404.9624646536106, 376.99999999999994 405.29544660429764 C 377 405.6284285549847, 378.5079585327778 404.3481729579351, 380.3510189617285 402.45043416640976 C 382.19407939067924 400.55269537488437, 384.2190793906742 398.99999999999994, 384.8510189617174 398.99999999999994 C 385.4829585327605 398.99999999999994, 385.8874999999827 398.65787240746516, 385.74999999998886 398.2397164610338 C 385.61249999999495 397.8215605146024, 388.3107093195562 394.8946127020055, 391.7460207101249 391.73538798859613 C 395.1813321006936 388.5761632751868, 398.07616387068674 385.6557908677216, 398.17898019899854 385.2456715275623 C 398.28179652731035 384.83555218740304, 399.65235755511617 383.15, 401.2246713719004 381.5 C 404.8518234950415 377.69363454083026, 418 360.500761335436, 418 359.56417506085586 C 417.99999999999994 359.1770715712925, 419.36939114132986 356.8700087360879, 421.0430914251775 354.4373687604012 C 422.71679170902513 352.0047287847146, 426.0110647746909 346.1804229801489, 428.36369823776806 341.49446697247754 C 430.7163317008453 336.8085109648062, 432.8344405595154 333.16742810994043, 433.07060681259054 333.40317173944254 C 433.30677306566577 333.6389153689446, 433.5685556972271 332.6858590234697, 433.6523459938381 331.2852687494983 C 433.73613629044905 329.8846784755269, 434.33707087893026 328.4097127289532, 434.9877561904631 328.0075670904456 C 435.6384415019958 327.605421451938, 436.1003536308797 326.87670473174376, 436.0142275879827 326.388196601125 C 435.73532064601204 324.8062324906682, 440.42734517114314 312.00000000000006, 441.2858616438286 312 C 441.74355643353533 311.99999999999994, 441.8854321367283 311.6236422975828, 441.6011409842574 311.1636495501841 C 441.31684983178656 310.70365680278536, 441.97020732190043 307.4411568027854, 443.0530465178439 303.9136495501841 C 448.03809285956066 287.67413107797074, 449.4639458598455 275.8285667816929, 449.48245845318115 250.5 C 449.5007821896676 225.42982345198877, 448.95172042707657 220.13956854167867, 444.3968762226299 201.5 C 439.871561368853 182.98127299122467, 432.05983155695395 164.14255480251035, 421.65705770878617 146.66079754931167 C 419.091400436187 142.3492362014331, 417.2885042093812 138.34220737769868, 417.6506216492177 137.75628905212412 C 418.01273908905426 137.17037072654955, 417.8555316865799 136.97125233924103, 417.30127186594143 137.31380374699404 C 416.74701204530294 137.65635515474708, 414.78815254638187 135.81338397848148, 412.94825075722787 133.21831224418162 C 411.10834896807387 130.62324050988173, 409.3338144883938 128.275, 409.0048408023832 128 C 408.6758671163727 127.725, 406.3180697821796 124.75790210211123, 403.7652911708431 121.40644911580273 C 398.72322478128575 114.78689801826323, 382.3646330876156 98.84841115063678, 374.75 93.13629934088132 C 372.1375 91.17653425026171, 370 89.2191448160372, 370 88.78654504260464 C 370 88.35394526917209, 369.29844235253125 88, 368.44098300562507 88 C 367.5171862913069 87.99999999999999, 367.1726914261836 87.5295963972442, 367.5954915028126 86.84549150281245 C 368.0357085023486 86.13320543513767, 367.8700052233127 85.96230720160274, 367.1628905515909 86.39932810267055 C 366.5241591761887 86.79408580235012, 364.7956166017663 85.88652569267555, 363.2583820544034 84.34929114531243 C 361.7412719244815 82.83218101539035, 360.3508679963199 81.73890528073017, 360.1685955473775 81.91978951273424 C 359.9863230984351 82.10067374473832, 358.0334387654978 81.06771919928387, 355.8288525852946 79.6243349672799 C 353.62426640509136 78.18095073527596, 351.3843407613028 77, 350.85124004354213 77 C 350.31813932578154 76.99999999999999, 350.20305248245324 76.4804711762656, 350.5954915028126 75.84549150281246 C 351.01453758008466 75.16746070693394, 350.87206295190236 74.96103545539474, 350.2502745736295 75.34532180697704 C 349.66796624221945 75.70520814772071, 346.33593741848506 74.38064789740633, 342.845766076442 72.40185458405622 C 333.05506265808054 66.8509011899152, 303.9296835326663 55.88788492026566, 295 54.392340968071025 C 293.625 54.16205588274352, 290.475 53.54527572925727, 288 53.02171840476824 C 273.15796760764346 49.882059912113, 238.9115575460078 49.085734522749725, 221.5 51.475406300890775 M 252.8 70.2 C 254.25618415411495 71.65618415411497, 254.37954288284575 74, 253 74 C 252.45 74, 252 73.36481773456865, 252 72.58848385459699 C 252 70.6308877706751, 248.57444166424483 71.3077878951371, 248.17677436981006 73.34396417379328 C 247.99900027320558 74.25422107329528, 249.23650027320556 76.6767367032504, 250.92677436981006 78.7273322403602 C 254.15738685669578 82.64662530711614, 254.80701329223587 85.79298670776416, 252.8 87.80000000000001 C 250.9628799977888 89.63712000221118, 247.19231438417094 89.22785980564787, 246.035183758488 87.06574145408933 C 244.65265501613948 84.4824628690769, 244.72580423006758 84, 246.5 84 C 247.325 84, 248 84.675, 248 85.5 C 248 86.325, 248.68912315835243 87, 249.53138479633873 87 C 252.4750906665814 87, 252.1097008919334 84.16102216125299, 248.56898703583772 79.52243466102945 C 244.47438956269838 74.15822014687075, 244.48109059440588 74.18585944096588, 246.55670396864906 71.22250624340543 C 248.2694214941373 68.77725944616695, 250.9398977358871 68.3398977358871, 252.8 70.2 M 217.44048682220927 80.25 C 221.0380529412812 89.885835605415, 221.50271401671404 92, 220.0229575375047 92 C 219.3573493152562 92, 218.58480100804334 91.12828053198584, 218.30618352147616 90.06284562663518 C 217.91177513743622 88.5546256491438, 217.32358612613726 88.30140821768383, 215.64980313658606 88.91926455809897 C 211.63663341887806 90.40067664719709, 211 89.30499128033884, 211 80.91666666666666 C 211 73.85489690422654, 211.20159435948506 73, 212.86683954291215 73 C 214.2687269997332 73, 215.40783231364614 74.80567346398824, 217.44048682220927 80.25 M 288.82442902689195 78.50899445015605 C 289.2518724476717 85.08477006984776, 288.0970346830447 94.17800472095907, 286.9263566054394 93.45448587911463 C 286.41686047244775 93.13959995178915, 286 92.00852365871884, 286 90.94098300562506 C 286 88.44524574232865, 282.22184288947096 88.31435250065094, 280.44200364161895 90.74842770967032 C 277.71790700352676 94.47385184657243, 278.20850658911587 90.99976542039191, 281.6567599551282 82.1463649606529 C 284.34591121617666 75.24196134416158, 285.6672952702694 72.98067149070343, 286.87848060085605 73.21041338987015 C 288.0607480850162 73.43467005008122, 288.5878842839709 74.86999785353292, 288.82442902689195 78.50899445015605 M 284.6124690789313 80.62394124417281 C 282.649075145576 86.38618545606352, 282.6258455453863 87, 284.37116932944383 87 C 285.2656404830346 87, 285.9783148527393 85.22112438124864, 286.4210979574925 81.88326196138206 C 287.30681083769076 75.20643146385665, 286.62108686799246 74.72897231700554, 284.6124690789313 80.62394124417281 M 213.0815739951886 81.75 C 213.00906356093287 86.41668058812638, 213.22970425906746 87, 215.06738767055708 87 C 217.2932288664936 87, 217.20005515256412 85.85337368682242, 214.45794512904206 79.5 C 213.17603854287267 76.52986696242337, 213.1623358678942 76.5522671842409, 213.0815739951886 81.75 M 181.96481624151198 85.93425854591067 C 183.28857948983347 88.40773280092425, 183.26837702347973 89, 181.86024259861537 89 C 181.23337602785384 89, 180.13867029045795 88.2125, 179.42756318218008 87.25 C 178.46436184195778 85.9462845973947, 177.84215502233533 85.7880690535582, 176.98772559715962 86.62959498640508 C 175.87563104839236 87.72489481455983, 178.70721080546463 96.35404010182523, 181.29307357825246 99.75 C 183.25979308509412 102.33285190013837, 185.20118190563096 101.1924603051389, 184.4739744376109 97.88150639059728 C 183.949946186081 95.49562138936477, 184.10747315453239 94.86798183186262, 185.1445191717918 95.20983433098641 C 186.9516867583886 95.8055501869194, 187.45472996223634 99.74715762764215, 185.95431915087195 101.55504205593857 C 185.29475443090598 102.34976892517236, 183.65698885089046 103, 182.31484008417075 103 C 180.2812263530356 103, 179.3850883269675 101.92047219293322, 176.93728479961294 96.5219572266229 C 173.73507590941765 89.45963689503398, 173.36329230477173 87.03670769522829, 175.2 85.2 C 177.0371200022112 83.36287999778882, 180.80768561582903 83.77214019435212, 181.96481624151198 85.93425854591067 M 213 91.5 C 213 92.325, 212.55 93, 212 93 C 211.45 93, 211 92.325, 211 91.5 C 211 90.675, 211.45 90, 212 90 C 212.55 90, 213 90.675, 213 91.5 M 347.98468722548296 98.5950124378879 C 347.99310925146733 98.09726927872626, 348.9 98.5045136816767, 350 99.5 C 352.86635795087204 102.09401829410028, 352.5185185107254 103.99560685389706, 347.9172590872764 110.8860472262329 C 343.55615623453497 117.41685029534439, 342.3965814980317 117.93805313379897, 338.00259973751434 115.34246424941601 L 335.1966153617557 113.68492849883202 340.76960815038103 105.31061723698602 C 344.61177826924273 99.53714332150149, 346.59521713463624 97.33441341084512, 347.15598769498615 98.21815298757002 C 347.60335041077496 98.9231688444065, 347.9762651994985 99.09275559704956, 347.98468722548296 98.5950124378879 M 112.60300566479165 98.83333333333334 C 112.31974008661462 99.29166666666667, 112.72338753745838 99.66666666666667, 113.5 99.66666666666667 C 114.27661246254162 99.66666666666667, 114.68025991338538 99.29166666666667, 114.39699433520835 98.83333333333334 C 114.11372875703131 98.375, 113.71008130618756 98, 113.5 98 C 113.28991869381244 98, 112.88627124296869 98.375, 112.60300566479165 98.83333333333334 M 342.57950021872267 106.68480022441054 C 339.4624989357394 111.86721306550166, 338.95188503305855 113.35222932631271, 340.0529586990797 114.03273027603123 C 340.83476471513075 114.51591296655995, 341.9208022057602 114.48069147496044, 342.5584708211082 113.95147352852486 C 343.177522071224 113.4377066228949, 344.0522607737374 113.3509477084918, 344.50233460447123 113.75867594096246 C 344.95240843520503 114.16640417343311, 345.0479962900106 114.02010011040927, 344.71475205959473 113.4335558009095 C 344.38150782917893 112.84701149140973, 345.4324348721436 110.37201149140972, 347.0501454884052 107.9335558009095 C 350.49546719366464 102.74025099512875, 350.56033908849315 102.37025189638351, 348.2430030664554 101.1300512944297 C 346.7714143736929 100.34248092688864, 345.85142962381923 101.24479958768093, 342.57950021872267 106.68480022441054 M 130.77380787082404 127.75360739419699 C 134.77440219977726 130.70178984187007, 137.79103999278934 133.52908739958136, 137.47744741085086 134.03649085577763 C 137.14623135875007 134.57240968569624, 136.03377114212753 134.44376158028498, 134.82298607551562 133.72952129715816 C 133.16781020554015 132.75313554993056, 132.64549471174493 132.75735173367434, 132.28601320215546 133.75 C 131.53503347178312 135.82370534370793, 129.72685649715265 135.15250431759137, 130.28760838709275 133.00818579636515 C 130.66887958935055 131.55020247918196, 129.76209487274727 130.18761962772035, 126.90423975105372 127.92415647912128 C 121.82383365671646 123.90040038065389, 121.98635322932383 125.12174581338175, 127.51051105262087 132.4803257655857 C 129.97972997367938 135.76950493665782, 132 138.8445049366578, 132 139.313659098919 C 132 141.23379060277455, 129.83224634214957 139.11220930946826, 124.63913564870714 132.1095784813115 C 120.06261869956919 125.93839119772765, 119.34336704746133 124.42304427359022, 120.27937217254961 122.92426183420929 C 121.56588847299685 120.86422179019162, 121.1910536847329 120.6917297408355, 130.77380787082404 127.75360739419699 M 378.81143855336785 123.03895514741953 C 380.935248786834 125.01758536332315, 381.69462466854185 127, 380.32874067158406 127 C 379.95954804095527 127, 378.8711595151389 126.28838852581636, 377.9100995031033 125.41864116848078 C 376.3070390193305 123.96789136935303, 375.98409251125423 124.01590748874575, 374 126 C 372.01471392857803 127.98528607142195, 371.96719764649646 128.30627246420246, 373.4208229684267 129.9125103649066 C 375.4828212486758 132.1909928176783, 374.19099281767836 133.48282124867583, 371.9125103649066 131.42082296842676 C 370.3064533714785 129.96736136533116, 369.9862491684691 130.01375083153093, 368.01444645570666 131.98555354429334 C 366.4396285254443 133.56037147455572, 366.1486578089603 134.47419541456597, 366.924411683225 135.40892165010837 C 367.5064417223926 136.11022494427414, 367.68655229150824 136.98011437515848, 367.3246573923709 137.34200927429578 C 366.9627624932335 137.7039041734331, 367.26666666666665 138, 368 138 C 368.73333333333335 138, 369.06870793052434 138.26462540280903, 368.74527688264664 138.58805645068674 C 368.4218458347689 138.91148749856444, 366.7623553376768 138.1448445488508, 365.05752022244195 136.88440545132312 L 361.95782001292406 134.59269800127274 368.70209047830303 127.79634900063637 C 372.4114392342615 124.05835705028636, 375.7110770803691 121, 376.0346190252088 121 C 376.35816097004863 121, 377.60772975772016 121.91752981633879, 378.81143855336785 123.03895514741953 M 265 125.05130453330192 C 277.5291220282812 126.04834186918191, 306.5011553959966 135.16551127066816, 304.26052228175587 137.40614438491087 C 303.8757637439903 137.79090292267676, 304.23804485431094 137.84588402586363, 305.0655914158018 137.52832461421497 C 305.8931379772926 137.21076520256634, 307.5190195209566 137.8348836589023, 308.67866151283283 138.91525451718383 C 309.8383035047091 139.99562537546532, 311.06000366099835 140.60666300566854, 311.3935507490312 140.2731159176354 C 311.72709783706404 139.93956882960228, 312 140.21822431413494, 312 140.89235032770802 C 312 141.56647634128106, 312.3375 141.91503206853884, 312.75 141.6669186105031 C 313.1625 141.41880515246737, 315.0623012105072 142.2922475049986, 316.9717804677938 143.60790161612815 C 322.0625133570687 147.11547763659473, 319.82166878366615 146.5354260273498, 310.76016489145553 142 C 303.027785821082 138.12982196925904, 299.9260923366493 137.18701243645043, 300.06818154421825 138.75 C 300.1056813935383 139.1625, 303.76716249475385 141.28112395835836, 308.2048062135862 143.4580532407964 C 312.6424499324186 145.6349825232344, 316.77732430783294 147.8849825232344, 317.39341593672924 148.4580532407964 C 318.00950756562554 149.03112395835836, 320.98552646441 151.16791374421547, 324.0067912673613 153.2064749871455 C 346.3622188517278 168.2905246202993, 363.9920024676375 196.44228899828653, 371.15866906204957 228.5 C 372.96336153788894 236.572694477309, 372.698136600235 263.1351563885156, 370.71433864700543 273 C 368.6854568660089 283.0890322238397, 362.5821070839295 300.33275785875765, 358.95164124400935 306.2330169474117 C 357.3282385598042 308.8713826184788, 356 311.3412355960519, 356 311.7215791197965 C 356 312.83423999831746, 347.87986403360316 324.15168034032484, 344.0322595752167 328.40161857315263 C 332.02070513333143 341.6691893461805, 326.70120679729564 346.0542698316796, 312.2114807233707 354.63279068037036 C 305.3447187293005 358.69819955204906, 289.17992394020456 365.51325727352514, 288.35663228562464 364.6899656189577 C 288.1252133667008 364.45854670003735, 289.4127997265119 363.71604829056577, 291.217935307427 363.03996915346534 C 299.7296715566648 359.8520605224173, 303.05922306432984 358.24053627725766, 310.3394763091278 353.7850208944834 C 314.6511882791481 351.14625293373365, 320.2761882791481 347.32424685991214, 322.8394763091278 345.29167406376894 C 330.1152728821558 339.5222927021566, 344 325.14911837139476, 344 323.3867498000255 C 343.99999999999994 323.05782890981845, 345.1542141602908 321.41700622508523, 346.5649203562018 319.74047716728506 C 355.96666697324923 308.56713615322997, 365.21761995240985 279.6932462792646, 364.8399629274062 262.7007788971007 C 364.7519425374795 258.7403505036953, 364.532481846796 257.075, 364.35227250366495 259 C 362.2498006833702 281.45864827954415, 357.627769519587 297.2624759354759, 348.85780325337544 311.9792883203488 C 342.9216126449879 321.9407637482608, 343.2296853155491 322.94040958979934, 342.78246970481194 292.26581647386166 C 342.3864427459717 265.1022615046105, 342.32476207914044 264.4027172900858, 339.93883108253294 260.0150149081753 C 338.59747398713984 257.5482731076718, 336.7049715626158 254.92998319897592, 335.73327013914627 254.19659288885117 C 334.76156871567673 253.46320257872645, 334.2685975394111 252.3744170463132, 334.6377786363337 251.7770694834884 C 335.01803217036957 251.1618063410761, 334.84804674006006 250.9758782905943, 334.245659420076 251.34817412873645 C 333.6608127542116 251.7096292464477, 332.04533596125026 250.65415807018206, 330.65571099127305 249.0026826259239 C 329.26608602129585 247.35120718166576, 327.7559218730618 246, 327.2997906618641 246 C 326.84365945066634 246, 324.60960741989334 244.07986321240165, 322.3352305934796 241.73302936089254 C 318.98522705152175 238.27630151191127, 318.20000000000005 236.7555260143265, 318.20000000000005 233.72418994146656 C 318.20000000000005 228.3788725564883, 321.3837857475702 220.5012311567843, 323.5466764637117 220.494907822372 C 326.34153255543407 220.48673690112741, 327.8131526748995 217.3195355142255, 325.7388691180471 215.77689974180225 C 324.7945381865111 215.07460488381102, 323.5777445184323 212.13286477874675, 323.03488318898314 209.23969950832614 C 321.76750826507094 202.4852579676377, 318.7191788830911 197.27129251633608, 313.83271471991765 193.5 C 311.69480952314194 191.85, 309.36357190845604 189.98607792065175, 308.6521866872822 189.35795093478168 C 306.5444603820441 187.49690612847573, 291.1795286155222 188.21581374351967, 286.763540675881 190.38209569114724 C 282.21489688870037 192.61345253746103, 277.56185259051284 197.229354293556, 275.95801050435443 201.1013716098646 C 275.3034432389112 202.68163677958327, 274.30058453401574 203.6857714585143, 273.7294356045868 203.3327820074891 C 273.11007074502953 202.9499934728454, 272.99311597129645 203.17984441320314, 273.43963474112877 203.90232695940662 C 273.85139319565576 204.56856613398645, 273.9123486066934 206.21309495772078, 273.5750912101013 207.55683545659406 C 273.06885582554565 209.57383788578832, 272.34258107490575 210, 269.4113970187093 210 C 266.30138303646083 210, 265.90054248924366 210.27914136628462, 266.18044904692425 212.25 C 266.42279810372656 213.9564113643119, 267.26032218782626 214.57385159430473, 269.6470947151859 214.80568351925768 C 274.0980785316741 215.23801635964463, 274.68196860752784 220.30506768033874, 271.06576609116485 227.1170430825703 C 268.20277867238343 232.51015914434782, 268.76100841736456 234.9993098304487, 273.06114062777283 236.01443334434143 C 275.0361028320751 236.48065867754954, 275.63085046691685 237.56201747648365, 276.6153506245436 242.47663012851166 C 278.0570102412275 249.67337716525373, 279.8268926857158 251.1940337773345, 286.36839686327005 250.85630206493613 C 290.64933238519217 250.63528138754413, 291.4739021105601 250.9304487625512, 293.2017531745423 253.30240672150268 C 294.74728160569595 255.4240759668898, 294.96867348639773 256.58687893339373, 294.2389346185008 258.74993106618325 C 293.4758181809641 261.0119191695958, 293.7568103503394 262.08795521020943, 295.8221720404761 264.81280652168545 L 298.33318746649513 268.1256130433709 296.41659373324757 271.9568935323446 L 294.5 275.78817402131835 285.8164893852342 270.1440870106592 C 268.53745168132076 258.9131003063286, 268.79649012313564 259.1598015788063, 267.2900474233254 252.5 C 266.4720129697889 248.8835682924639, 264.75440502899863 245.03356458001036, 262.96642570150385 242.80863837727819 C 260.2984348303075 239.4886431700112, 260 238.3977296918433, 260 231.96501876216826 C 260 225.67293343914048, 259.76138674182937 224.7503620010527, 258.01595232721155 224.29392064820564 C 256.04855159832476 223.77943380025266, 254.01735453677622 218.7891378320128, 254.00557693440265 214.44112963510463 C 253.99424484087484 210.25759261420393, 251.94991335787483 209.13856119526216, 243.71876757218246 208.81030950015455 L 235.93753514436492 208.5 235.0093091347668 212 C 234.49878482948782 213.925, 233.79439796054066 217.32449705613743, 233.4440049815509 219.55443790252764 C 233.0016183455024 222.36983686533185, 232.14882697415027 223.89784021562485, 230.65346341896657 224.55443790252764 C 229.46905853853497 225.07449705613743, 228.36048447742868 226.4798207703969, 228.18996550539705 227.67737948977094 C 228.01944653336543 228.87493820914497, 227.23194653336543 230.39253833109393, 226.43996550539705 231.0498242052131 C 224.16016678036797 232.94188909676797, 224.5487750216873 240.70125756989435, 227 242.2320729051695 C 228.1 242.9190342749748, 229 244.28697068094812, 229 245.27193158511022 C 229 246.2568924892723, 229.675 247.32179139620806, 230.5 247.638373600523 C 232.8145910879406 248.52656553835087, 232.29792389746328 251.70840980184727, 229.7346425484101 252.35175246751803 C 228.19199794102798 252.73893161750186, 226.60613488766737 254.7674429010872, 224.76372399628488 258.7101604973927 C 219.97340938617188 268.96132531272855, 219.92595783716627 269.26601279129284, 222.78402444542314 271.421856471647 C 224.183878772042 272.4777685678659, 225.00358330342442 272.8148149011076, 224.60559007071743 272.1708483232952 C 224.12648726276478 271.3956436959224, 224.72674600548729 271, 226.38196601125009 271 C 227.75696601125009 271, 229.13765970858265 271.4137210929932, 229.45017422754466 271.91938020665157 C 230.04970280760955 272.88943782642355, 227.44123318992956 276, 226.02822920337093 276 C 225.5723266937961 276, 225.27549652617714 278.1375, 225.3686066086621 280.75 C 225.53297453354006 285.3618657859939, 224.86026570466186 287.63085095044113, 215.98748329054519 312.3916683130984 C 214.4321396142635 316.7320858853026, 212.56117891541192 320.6626951367699, 211.82979284865286 321.1263555385814 C 210.96728172572966 321.6731423478975, 211.78980876945872 321.974755273783, 214.1705447341809 321.98468722548296 C 217.4955099882405 321.9985583119019, 217.90761640942884 321.69710482134064, 218.5477000377423 318.78282315070743 C 218.93633585090151 317.0133758835965, 219.60089545020267 314.8758758835965, 220.0244991473004 314.03282315070743 C 220.9683463232628 312.1543859543928, 222.88053187848521 307.18873532702844, 227.05770556911847 295.76867206688536 C 228.81424140194386 290.96644170367233, 230.59462391931774 287.2494638039122, 231.01411116328268 287.5087211785295 C 231.728040891105 287.9499540159027, 228.25024519250482 298.9075453773145, 227.049543191866 300 C 226.7472944363397 300.275, 226.35493390908124 301.34341161319657, 226.1776309090694 302.3742480293257 C 226.00032790905755 303.4050844454549, 224.53782790905757 307.6698198758145, 222.9276309090694 311.8514378745692 C 219.4302982644806 320.93387259178246, 219.23325700115225 323.01326856815433, 221.93694559897833 322.3062381172046 C 223.89692184117098 321.79369281613606, 226.90750466708474 316.40491623622387, 228.81215160870028 310 C 229.38459396819184 308.075, 231.233252384927 303.125, 232.9202814236673 299 L 235.9876069486496 291.5 235.7438034743248 306.7514964350354 C 235.5004662876793 321.9738235364576, 235.50430324990793 322.0029900080557, 237.75 322.0014964350354 C 239.9433786005516 322.00003765788705, 240.00541131198958 321.7043104695472, 240.21503269250013 310.25 L 240.4300653850003 298.5 240.74676800495365 310.25 C 241.06207957397447 321.94839054864866, 241.07417257760915 322, 243.5 322 C 245.92582742239085 322, 245.93792042602553 321.94839054864866, 246.25323199504635 310.25 L 246.5699346149997 298.5 246.78496730749987 310.6113281285177 C 246.99750183410438 322.5819515738107, 247.02613962183966 322.71767746393834, 249.25 322.2941005366333 C 251.47724813767684 321.8698783454528, 251.49782520966045 321.71201755066977, 251.2849284513732 306.6827724081156 C 251.0378275921072 289.23892113146366, 250.61518702823744 289.05398960577696, 258.8660855024093 310 C 262.93387770862745 320.3266351052194, 264.11252153879843 322.4400030732273, 265.6449968175407 322.15493066237514 C 266.6652485678933 321.96514252668146, 267.5997684625187 321.71537406416235, 267.72170769448593 321.59988963455487 C 267.8436469264532 321.48440520494734, 266.62449901348214 317.85452093003556, 265.0124901101058 313.5334801347509 C 263.40048120672947 309.2124393394662, 262.31477039167953 305.29970780198533, 262.59979940999483 304.83852116257117 C 262.8848284283101 304.377334523157, 262.6149186938124 304, 262 304 C 261.38508130618754 304, 261.19579582019827 303.4922127024389, 261.5793655866905 302.8715837831976 C 262.40856074745375 301.5299178297758, 263.7519482421454 303.5531779627806, 264.4156857724614 307.1433323136723 C 264.6553174847389 308.43949954115254, 264.8848193409576 309.6125, 264.925689897392 309.75 C 264.9665604538264 309.8875, 264.9615654115188 310.28718847050624, 264.91458980337507 310.638196601125 C 264.8676141952313 310.98920473174377, 265.3062501491224 311.57123901246746, 265.88933636757747 311.93160611384434 C 266.47242258603256 312.2919732152212, 267.11155962328553 313.46728474471496, 267.30964089480636 314.54340951271934 C 267.9796492472558 318.18339312805483, 270.234088518456 321.8279527947897, 272.12090248840855 322.3213657318806 C 275.2075350001172 323.1285382658853, 275.1262260677841 321.66588345446075, 271.5826995782635 312.63971018115507 L 268.2022212626791 304.0288579373936 276.06799953534914 310.1137622566702 C 280.39417758531766 313.4604596322724, 283.83617780121483 316.7164665963588, 283.7168889040096 317.3493332879734 C 283.5976000068043 317.982199979588, 284.0831328017419 318.38062239941894, 284.7958506705375 318.2347164431532 C 285.5085685393331 318.0888104868875, 288.09698494806867 319.14460735141864, 290.5478871343943 320.5809316976669 C 295.1405675002222 323.27242165625427, 303.8631098663028 324.2679480406208, 308.66591590299925 322.64878931473044 C 310.6627365586387 321.97560585407984, 324 302.9829600103516, 324 300.8126135600319 C 324 300.30075740820195, 324.5195288237344 300.20305248245324, 325.1545084971875 300.5954915028126 C 325.88942597230147 301.04969548135927, 326.0367307907902 300.86844866230706, 325.5598190392993 300.0967892387606 C 325.1357177650228 299.4105789623091, 325.8851976052304 297.2607667312094, 327.28702450406627 295.14246327216796 C 330.42733052885114 290.3971404935321, 335.060204138374 281.28367625224166, 335.5041936648247 278.97822404982503 C 335.7805269226302 277.5433408378235, 335.37938617461185 277.338944508618, 333.3514219687064 277.88130573754245 C 331.55650852347264 278.36133958583974, 329.73085051650884 280.6399887110717, 326.82753072357565 286.0239365162105 C 324.6102039349046 290.13577143229475, 321.55436880922764 295.525, 320.0367859998491 298 C 318.51920319047053 300.475, 315.8822162760096 304.975, 314.1768150788248 308 C 309.10285202796535 317.0000747356027, 306.90742808616704 319, 302.1015321721613 319 C 297.69770711274595 319, 292.3941084161021 317.20395765894597, 289.96034151382514 314.88843467606625 C 289.1571536812213 314.1242695112662, 284.55943782815376 310.3492586871876, 279.743195173675 306.49952173366944 C 274.9269525191963 302.64978478015126, 271.1915351356197 298.9604173835762, 271.442267654616 298.30092751905823 C 271.70360386146456 297.61354727680595, 271.3229327394021 297.322584678531, 270.55022311643165 297.61910118245333 C 268.0676882155983 298.571739208146, 268.0429930270017 296.3302855471116, 270.4993420504299 293.000891800458 C 271.83743451950727 291.18720951976445, 273.07732161682867 289.2680351495138, 273.25464671114406 288.73605986656764 C 273.43197180545945 288.2040845836215, 276.34116108861224 289.26406779003406, 279.7195117848169 291.09157810304 C 283.0978624810216 292.91908841604595, 285.59849606324167 294.840630021917, 285.27647530086153 295.36167056053114 C 284.9544545384814 295.8827110991453, 285.1759651620529 296.0092815377654, 285.76872113102036 295.64293820190915 C 286.97779184524967 294.89569140571325, 294 298.69702290134, 294 300.0987758706876 C 294 300.59444914181034, 294.5625 300.8875000000013, 295.25 300.75000000000085 C 295.9375 300.6125000000004, 296.39289821607423 301.04630535177625, 296.2619960357205 301.71401189283614 C 296.115250675484 302.4625314105042, 296.6574423374132 302.6849461110952, 297.67604095007795 302.2940731485367 C 298.7769355291642 301.871620260577, 299.089224653672 302.04661448334934, 298.61210712678053 302.81860685848807 C 297.80544297761907 304.12381686933736, 300.6257801569472 303.3669453059563, 302.7752283133896 301.7013829803827 C 303.8052668473477 300.9032277092692, 303.79307576281684 300.4043288581368, 302.71182266817584 299.10661764409264 C 301.1029863830235 297.1757053543141, 301.11496233341177 296.68470752214563, 302.90264535110384 291.2831447163661 C 303.6709434293824 288.9616983065102, 304.7501472279558 287.34558249469336, 305.3036292776278 287.68765321355363 C 305.8565925218388 288.02940329300543, 306.0130056494738 287.83006057726936, 305.65121400570564 287.24466940080674 C 305.28942236193745 286.6592782243441, 306.2323935382031 282.91146408274165, 307.7467055085181 278.9161935305789 C 310.6101677493316 271.361405222611, 316.1261204416196 264.4506833408454, 318.5502164456469 265.38089625772636 C 320.30302114483607 266.0535105309426, 321.5574982461714 262.15749824617257, 320.06778974093265 260.6677897409325 C 318.6690343103778 259.2690343103765, 310.41714262625106 263.35204478130134, 308.8951039240803 266.196000110721 C 308.3476061468366 267.219009065235, 307.50332563575375 267.811072350305, 307.01892501056295 267.51169629976533 C 306.5345243853721 267.2123202492257, 305.81257354213756 267.49424538483754, 305.41458980337507 268.138196601125 C 304.9626665858146 268.8694237274431, 305.12445184927105 269.0411185159376, 305.8454915028126 268.59549150281254 C 307.3686093220106 267.6541529216775, 307.30297482854803 268.60790422937055, 305.6218207114871 271.84570794336395 C 303.69575868977824 275.5551898427228, 302.57149318011517 278.3609736785129, 299.47848632587136 287.1773784152077 C 297.5494557779606 292.67594820870653, 296.3898805247249 294.7031055971682, 295.39253865185384 294.3203896110224 C 294.62664239333424 294.0264876403562, 294 293.31786919209475, 294 292.7456819482191 C 294 290.576576976943, 298.3092432979105 280, 299.19300758954404 280 C 299.70177210910725 280, 299.850971108019 279.56788318184397, 299.52456092045907 279.0397404040977 C 298.719833207302 277.73766361252063, 304.7059039977318 266.05008563238755, 306.53750282281106 265.34723521606657 C 307.341876270265 265.03856816262703, 308 264.1918284205788, 308 263.4655913448483 C 308 262.73935426911777, 309.1856864113106 261.2124992310008, 310.63485869180136 260.0725801490328 C 312.08403097229217 258.93266106706477, 312.98843533663495 258, 312.6446461681187 258 C 312.3008569996024 258, 312.7704410460919 257.12305222374425, 313.6881662714286 256.0512271638761 C 314.6058914967653 254.97940210400793, 315.7960159561569 254.3739309277423, 316.33288729229884 254.7057356610636 C 316.86975862844076 255.0375403943849, 317.0283573166335 254.85490009651764, 316.68532882161605 254.29986833246966 C 316.34230032659855 253.7448365684217, 317.06332708445944 252.34968412521025, 318.28761050575133 251.1995295697775 C 320.3908102317779 249.22367601838187, 320.6924548845253 249.19497098532023, 323.7567901813228 250.67907286027662 C 327.24166314191837 252.3668472040992, 328.25079275077087 254.53176153863097, 325.08415694460496 253.52671037660937 C 324.0304432641377 253.19227464613175, 322.83591444040337 253.45647901811543, 322.4296484474175 254.11383120323978 C 321.96782616185016 254.86107535804996, 322.11593362152075 255.0463830702112, 322.82482477621727 254.60826424228463 C 323.44843775004296 254.2228502286349, 324.92227128364567 254.42321709495107, 326.1000104064455 255.0535239452094 C 327.58930243312966 255.85056884953642, 328.03438339606754 255.86465049786077, 327.56166013866584 255.0997682001123 C 326.0329715741978 252.6262981445898, 328.54304844164477 254.24650089159795, 331.6674953784558 257.75 C 333.5068484388628 259.8125, 334.7892790730773 262.0858720044094, 334.5173412322657 262.8019377875765 C 334.24540339145415 263.5180035707436, 334.41155996340734 263.86367594295547, 334.88657805882826 263.5700986147141 C 337.19315183391626 262.1445576241506, 338.08408107916085 272.30256282214077, 337.7967565544415 296.7507450502269 L 337.5 322.00149010045374 339.74021252368277 322.0007450502269 C 341.9091304360633 322.00002371117284, 341.9253897216975 322.0716060970708, 340.25111025688653 324.25 C 333.3193719906334 333.26883866658505, 315.7908490461542 348.2931572636573, 307.6667116595214 352.17924351763475 C 305.37502024678463 353.2754473450156, 301.044613897802 355.48356457383994, 298.04358643956 357.08617069279995 C 295.042558981318 358.68877681175996, 291.849196087742 360, 290.94722445383553 360 C 290.0452528199291 360, 288.0006389221271 360.64355250879834, 286.40363801427554 361.4301166862186 C 279.72053574579604 364.7217170933177, 261.17488877360495 367.21532310754475, 247 366.7282413017771 C 234.48265546919856 366.29811653149795, 232.6085552181117 365.965376057157, 221.25307833445711 362.15695813651183 C 198.39090358734785 354.4894055621993, 177.55929773532299 340.65991259991563, 164.00550232522025 324.15196921960677 C 161.59046113226555 321.21055229039047, 158.5800449316606 318.41063235112387, 157.31568854609822 317.92992491012535 C 155.14827111820233 317.1058742727918, 153.31067907619143 313.7229722372042, 141.81476778977503 289.3936147927473 C 134.5487725990669 274.0162349765577, 132.41810150763266 248.08759496547728, 136.58300162867573 225.7270160583627 C 141.0825335222864 201.56986101788053, 156.37689068142163 174.0276886826636, 173.86555791364833 158.58835964972695 C 175.16661476615488 157.43976184237712, 177.6416147661549 155.23229664395132, 179.36555791364833 153.6828814310029 C 187.79784418477053 146.10425991589716, 205.8270463830541 135.91295864029723, 218.5 131.56149829001748 C 221.25 130.6172420159893, 224.56790155565534 129.32392736624718, 225.87311456812296 128.687465735035 L 228.24622913624592 127.53026276919468 225.87311456812296 126.91971726213318 C 224.28633909361955 126.51147795936755, 225.8194723631445 126.07235867134706, 230.5 125.59448697916645 C 234.35 125.20141035241856, 238.175 124.71117802117703, 239 124.5050817986297 C 240.22397179603598 124.19931699418426, 259.3403751849443 124.60092523019144, 265 125.05130453330192 M 205 133 C 204.175 133.53315594803124, 203.05 133.9693744509659, 202.5 133.9693744509659 C 201.95 133.9693744509659, 202.175 133.53315594803124, 203 133 C 203.825 132.46684405196876, 204.95 132.0306255490341, 205.5 132.0306255490341 C 206.05 132.0306255490341, 205.825 132.46684405196876, 205 133 M 199.5588703648951 135.53180337187047 C 198.49124906558743 136.3393115173417, 197.25889298878474 137, 196.82030130533357 137 C 196.3817096218824 137, 195.10312881552886 137.7875, 193.97901062454793 138.75 C 192.854892433567 139.7125, 191.61224851036968 140.51169600042942, 191.21757968410947 140.52599111206536 C 190.25803997341 140.5607461430455, 184.66319463353622 144.22406221640026, 183.875 145.33366470135763 C 183.5296055280574 145.8199031861829, 182.96737285295157 145.75622516149465, 182.61824579924257 145.19132572220136 C 182.26847680998216 144.62538760936735, 185.89509273222947 141.9105145841811, 190.74324579924257 139.1089768320632 C 199.11878913140032 134.26911296736978, 203.66989394370754 132.422381493281, 199.5588703648951 135.53180337187047 M 176.8170276759794 150.56350311999134 C 173.95840832367045 153.0035764039961, 171.0035842595254 155, 170.25075197787936 155 C 169.49791969623328 155, 169.11965451272602 155.38458807412303, 169.41016268119654 155.85464016471784 C 169.70067084966706 156.32469225531264, 168.78832164361125 157.78719225531265, 167.38272000107247 159.10464016471784 C 157.94293391347725 167.95240049023374, 145.4616883275664 187.09923993654135, 139.62628049882213 201.6843720586764 C 129.16188459211781 227.83928725171697, 128.0756580067715 260.60933487911245, 136.78175559706014 287.5 C 138.20629564562572 291.9, 139.28816701979156 295.8375, 139.18591420631756 296.25 C 139.08366139284357 296.6625, 139.45000000000093 297, 140.0000000000006 297 C 140.55000000000027 297, 141 297.8625, 141 298.9166666666667 C 141.00000000000003 299.97083333333336, 141.33750000000003 300.98333333333335, 141.75 301.1666666666667 C 142.1625 301.35, 143.7509910810077 304.12497707002393, 145.2799801800171 307.333282377831 C 146.80896927902654 310.54158768563804, 149.95896927902655 315.65595180854166, 152.2799801800171 318.69853598428347 C 154.6009910810077 321.7411201600253, 157.2154378097572 325.3062722868145, 158.08986179946044 326.62109626603717 C 160.19204203021587 329.78203078818274, 167.20814534379858 337.14184246611177, 174.89548337176274 344.25 C 178.3156673501753 347.4125, 180.79332565945637 350, 180.40139072572072 350 C 177.93000976283756 350, 158.7753822872257 331.50869657507684, 152.89338585474223 323.44459633416704 C 143.12212265596187 310.0483886316052, 135.97995735132815 294.4673976111108, 131.37446791576724 276.5 C 128.76140180874626 266.30564424565966, 128.55288494254157 264.0718124736033, 128.52744760797168 246 C 128.49835942992502 225.33446614018555, 129.40464124613575 218.0927586904258, 133.6126664306255 205.36620775903583 C 137.39704356566958 193.92091780919299, 139.84821121753902 188.78815538457826, 141.1464133211258 189.59048840886152 C 141.8587874639632 190.03075984184156, 142.0397261898845 189.8732953198516, 141.61364173059232 189.1838761826387 C 140.71645267048186 187.7321937890454, 143.78459738677637 181.74883987501238, 145.0311335945704 182.51924161963643 C 145.55141028062164 182.84079029517025, 145.77190571924814 182.51800357074313, 145.52112345818483 181.8019377875762 C 145.27034119712155 181.0858720044093, 146.22488200583143 179.15, 147.64232525531787 177.5 C 149.05976850480434 175.85, 149.87557964614064 175.13202882373437, 149.45523890273188 175.9045084971875 C 148.9438955426982 176.84422789859013, 149.07843851265457 177.06955632190238, 149.86180339887497 176.585410196625 C 150.50575461516243 176.1874264578625, 150.75313755858656 175.40958517362225, 150.41154327315078 174.85687400942442 C 149.65760558135915 173.63697719870592, 153.94538958864504 168.84821492089313, 155.1339054380685 169.58275811200477 C 155.5976576101958 169.86937271673602, 155.70910072243586 169.40550357074318, 155.381556798602 168.55193778757626 C 154.99019572456376 167.53206717678174, 155.35719670598692 167, 156.4520281901906 167 C 157.3683313793982 167, 157.86290025825326 166.5871849523799, 157.55107014320185 166.08263322751094 C 156.96589077275607 165.13579311661437, 171.36483896187764 151.51189499601998, 177.20439786757208 147.48718228688165 C 182.6488391115989 143.73479067257264, 182.38772502399664 145.80844198840214, 176.8170276759794 150.56350311999134 M 329 152.68678307440697 C 329 153.38144063545576, 323.1503118879598 149.052226738007, 322.3590922784301 147.77200651722265 C 321.97332815294595 147.1478270505488, 323.30971979351017 147.8971894274122, 325.328851479684 149.43725624358572 C 327.3479831658578 150.97732305975924, 329 152.4396101336288, 329 152.68678307440697 M 400.42166395074565 149.87324960976213 C 400.71849781746823 150.35353689513127, 398.05946268238847 152.62319670387706, 394.5126969839017 154.91693807364163 C 387.11660061914637 159.70009367195, 386.3841090806499 160.55297055393638, 388 162.5 C 388.64469888661733 163.27681463585012, 388.86145592450913 164.41515202870917, 388.48168230642614 165.02963865079795 C 388.02814290957474 165.76348081014066, 387.2923784457884 165.43474119960638, 386.33765965519166 164.0716891900202 C 385.53822081509566 162.9303303645037, 385.2047330545544 161.47775195348532, 385.5965757428778 160.8437371655349 C 386.03759634170024 160.1301508469014, 385.86918079852495 159.9628167241428, 385.15450849718746 160.40450849718746 C 384.51952882373433 160.7969475175468, 384 160.65630749351857, 384 160.09197511045807 C 384 159.12675064961937, 397.70167465304644 149.17114281904355, 399.19098300562507 149.05423898005597 C 399.57102365871884 149.0244075410252, 400.1248300840231 149.39296232439295, 400.42166395074565 149.87324960976213 M 104.56909277012798 157.63126776468033 L 110.63818554025598 161.91737001529958 112.69773692585704 159.8578186296985 C 115.59555200322106 156.96000355233448, 116.34946293840481 159.02889279584002, 113.63582268374708 162.43212209634265 C 111.5639940817961 165.03044285447433, 111.26530501925153 165.12244787639435, 109.76676337559759 163.62390623274044 C 108.87361494759034 162.7307578047332, 107.86409781807916 162, 107.52339197668385 162 C 105.71615636373207 162, 96 154.79378314221162, 96 153.4534041638883 C 96 151.63107765799256, 96.23532064926604 151.74580830701888, 104.56909277012798 157.63126776468033 M 188.02350555733813 161.11494784383387 C 186.66143361387412 161.6584442274815, 184.41143361387412 161.8727785328678, 183.02350555733813 161.59124630024786 C 181.63557750080216 161.30971406762788, 181.03409435774367 161.31454282567245, 181.68687635054147 161.6019768736802 C 182.5411818808826 161.97814609944103, 182.4211472309533 162.6531889529777, 181.2584975554302 164.01106495297108 C 180.37010722532116 165.04862934857331, 179.35090051326037 165.71686844386468, 178.9935937508506 165.4960407202853 C 177.2878420161029 164.4418281718421, 180.23717641009299 177.41545554171017, 182.52837439121126 181.0449479434576 C 185.40074713085028 185.59508072090443, 185.7392336049221 185.78125559280465, 191.96173422947214 186.23349961097355 C 195.7599411182776 186.5095488151236, 196.509613216392 186.9252651262868, 197.0027287085788 189.0288866004577 C 197.37277590453533 190.60750102284945, 198.40235456237957 191.61836590619285, 199.85338252714615 191.82772651210868 C 202.1122358580468 192.1536436643039, 202.12346303156022 192.23841233965288, 201.88694278733502 207.18174320138456 C 201.62925463517885 223.46246086017112, 201.84351243790246 222.8076684521339, 195.16344074899848 227.72941070362623 C 191.17925823546744 230.66487611892623, 183.77147702822992 236.89018080531912, 180.35093086073314 240.17745481359077 C 179.06402049321778 241.41422426354225, 177.69820735546364 241.9315158768717, 176.94642236354568 241.46688719963436 C 176.18073569039657 240.99366681089538, 175.9423133570694 241.09764405666644, 176.33524698794596 241.73342402674763 C 176.68959217822245 242.30676658836504, 174.8466210019568 244.4945719432637, 172.23975548513343 246.5952137043002 C 169.63288996831005 248.6958554653367, 166.53472656012877 251.41851238969497, 165.3549479113973 252.64556242509627 C 164.1751692626658 253.8726124604976, 162.86552286408704 254.5668359293333, 162.4446225812223 254.18828124473117 C 162.02372229835754 253.80972656012904, 162.00758997348188 254.0698403532281, 162.4087729703875 254.76631189606246 C 162.80995596729312 255.46278343889682, 163.5061142922098 255.80523815397214, 163.95579147020229 255.52732237400764 C 164.40546864819478 255.24940659404314, 165.32947453489064 255.69206624081502, 166.00913788508194 256.5110104779452 C 167.66244073194616 258.5031185389274, 168.06667616036253 258.42075041880514, 171.28578201438296 255.43582699096703 L 174.05112743903183 252.87165398193406 173.7755637195159 287.4362731186105 C 173.5961551130225 309.9399255013724, 173.84893966880475 322.0420583865395, 174.5 322.11886718027506 C 175.05 322.1837533890186, 175.90876164607468 322.15979874955343, 176.4083592134993 322.0656346481303 C 176.90795678092394 321.9714705467071, 177.58295678092392 322.31838198707226, 177.9083592134993 322.83654896005277 C 178.2463375201781 323.3747416057524, 179.05283400124685 323.18300142787314, 179.7894265779143 322.38933536455414 C 180.5328363000479 321.58832394210907, 180.63870057823425 321, 180.0394265779143 321 C 179.33827989131248 321, 179.0181765508725 309.20248941037903, 179.05585076310155 284.75 L 179.11170152620306 248.5 185.45985292491946 243.5 C 188.9513361942135 240.75, 192.4906174610039 238.55656901836434, 193.3249224066759 238.62570892969856 C 194.17002168925077 238.69574338145262, 194.62567117437905 238.18808965357204, 194.35374586776447 237.47946366354714 C 193.8020952152736 236.04188510700865, 197.86231606071527 232.79687265706715, 199.18774416509385 233.61603227521746 C 199.66173912288605 233.9089772696291, 199.92590371392762 233.6089611417827, 199.77477658963073 232.94932976889208 C 199.62364946533384 232.28969839600146, 200.07113853949429 231.54087048683527, 200.76919675443173 231.28526774852278 C 201.78362817509185 230.91382100754547, 202.02662068974965 240.02192578288586, 201.9797433636944 276.66026774852276 C 201.94748578385142 301.87212048683523, 202.16384724435716 322.3875, 202.46054660926268 322.25 C 202.7572459741682 322.1125, 203.675 322, 204.5 322 C 205.81223407913149 322, 206 316.06721776127586, 206 274.60495985148293 L 206 227.2099197029658 208.44679658617667 224.8549598514829 C 209.79253470857387 223.5597319331673, 211.48003470857387 222.5, 212.19679658617667 222.5 C 212.9135584637795 222.5, 213.5 222.0240752874309, 213.5 221.4423895276242 C 213.5 220.30410899920514, 218.31629666871402 216.05687417835975, 238 199.83714793471046 C 248.82898199914183 190.91387163007758, 247.53621765997102 191.4299963215489, 251.22992601449528 194.55521736506034 C 253.02846670652286 196.0769501817435, 254.35000000000002 197.81205333597532, 254.16666666666674 198.41100215224213 C 253.98333333333346 199.00995096850897, 254.15946289853548 199.17387043479778, 254.558065700449 198.77526763288398 C 254.95666850236253 198.37666483097018, 257.37890776357915 199.80549751713323, 259.94081961426366 201.950451379913 C 264.54614005936224 205.80624363732943, 264.63514982501937 205.83278268326407, 267.80800632773713 204.29612241975656 L 271.01717149451144 202.74187734545504 265.5498104551451 198.49638063150496 C 262.5427618834937 196.1613574388324, 260.40139829722864 193.89728863752603, 260.79122470788946 193.4651166286019 C 261.1810511185502 193.03294461967775, 261.01004126085087 192.958220420904, 260.41120280189085 193.29906285354915 C 259.81236434293083 193.63990528619428, 256.9616339142321 191.7370358425917, 254.0762462936715 189.07046408998787 C 249.2309244302743 184.59259140448086, 243.85542014971014 182.6225554465458, 244.33376168468595 185.5 C 244.42519275810866 186.05, 243.9374999999999 186.3874999999999, 243.24999999999977 186.24999999999977 C 242.56249999999966 186.11249999999964, 242.11249999999964 186.41384492443, 242.24999999999977 186.9196553876228 C 242.3874999999999 187.42546585081558, 240.025 189.90225614418844, 237 192.42363381734026 C 233.975 194.94501149049205, 229.925 198.3348173253478, 228 199.95653567257528 C 226.075 201.57825401980273, 221.1353090795344 205.6965117897522, 217.022909065632 209.10821960579636 C 212.91050905172958 212.5199274218405, 208.94086619458673 215.91627666255437, 208.20148049420345 216.6556623629383 C 207.46209479382017 217.39504806332224, 206.66428571428577 218, 206.42857142857144 218 C 206.19285714285715 218, 206 212.20248411378242, 206 205.11663136396095 C 206 193.1002766578363, 206.13378400765615 192.19827742401566, 207.98795962645127 191.71339960748418 C 209.08133742099946 191.4274748912434, 210.4201995398208 190.02499077746097, 210.96320877938757 188.59676824352323 C 211.82213762391493 186.33761417870136, 212.52948903649747 186, 216.40382058150772 186 C 221.5066536264209 186, 223.38911712713352 184.55380297884574, 226.1244683442672 178.53214108381331 C 228.34269981201123 173.64887789625354, 228.5280830853494 167.19895670347805, 226.53211057319118 164.34930676406987 C 225.72477138844633 163.19666861656236, 223.05050236451632 161.7465408070299, 220.58929052001338 161.12680052066446 C 215.13729643334557 159.75397258466992, 191.4558854617424 159.74535347380063, 188.02350555733813 161.11494784383387 M 221.75 166.00278300008927 C 225.41935542993883 168.41364830876233, 224.6171100891369 170.55040519703576, 219.9730649646341 170.73559724496488 C 217.68637565190048 170.82678427382655, 216.1962906458494 170.49141205771696, 216.5250027522103 169.95954469711143 C 216.8433828048285 169.4443949506352, 216.51800357074316 169.22065552878644, 215.80193778757624 169.46234598189193 C 215.0858720044093 169.7040364349974, 207.4125 170.10755623909967, 198.75 170.35905665767473 C 184.0035658783549 170.7871933796468, 183 170.70005466233172, 183 168.9914984063298 C 183 167.75458356612435, 184.36924778782966 166.66700207159127, 187.25 165.61576072550287 C 193.02533431198862 163.50823124393338, 218.3862844471447 163.79273131949805, 221.75 166.00278300008927 M 214.34912233732763 174.6467360134007 C 222.61593546170394 175.3455376410456, 223.65796630745234 176.34203369254766, 219.97409350890842 180.02590649109158 C 218.09087018385134 181.90912981614863, 216.88159939756335 182.0323810825118, 202.80409649022656 181.77590649109158 L 187.66000596263626 181.5 185.9925204503375 178.5 L 184.32503493803875 175.5 191.41251746901938 174.93015815263539 C 202.89982583220925 174.00656518569488, 206.2815668126043 173.9647778214139, 214.34912233732763 174.6467360134007 M 251.58259826710693 184.86635319640914 C 251.2881086202033 185.34284745443415, 252.0490509727346 186.58034745443416, 253.27358127273197 187.61635319640914 C 255.49417644159297 189.4950730170185, 255.49541688500608 189.49455641144223, 253.74781820005404 187.41884846661264 C 252.78411821008376 186.27421512324958, 252.29661821008378 185.03671512324956, 252.66448486672073 184.66884846661264 C 253.03235152335765 184.3009818099757, 253.05989098080207 184, 252.72568366104161 184 C 252.39147634128116 184, 251.87708791401056 184.38985893838412, 251.58259826710693 184.86635319640914 M 304.73333333333335 186.12408768102532 C 305.41166666666663 186.80750612312806, 306.2185742979023 187.11475903543098, 306.52646140274595 186.80687193058736 C 306.8343485075896 186.49898482574378, 306.2793485075896 185.93982428220517, 305.29312806941266 185.56429294494603 C 303.86792961529756 185.02160830709485, 303.753066061821 185.1364718605714, 304.73333333333335 186.12408768102532 M 204.25 187.66228070175438 C 203.5625 187.93969298245614, 202.4375 187.93969298245614, 201.75 187.66228070175438 C 201.0625 187.38486842105263, 201.625 187.1578947368421, 203 187.1578947368421 C 204.375 187.1578947368421, 204.9375 187.38486842105263, 204.25 187.66228070175438 M 307.1204226608151 194.56227297810045 C 309.7290841085785 195.9112642402803, 309.9612147627767 196.34317568983744, 308.8207627339309 197.7259927731278 C 307.6403234913382 199.15729501921663, 307.73904963957557 199.20006294011978, 309.75 198.12853603653937 C 311.84876933288774 197.01021514266904, 312.4429721672665 197.31339424526485, 312.09364446300094 199.32432976889203 C 312.0148857597567 199.77771114178262, 312.39434205904416 199.874317193067, 312.93688068363986 199.53900988285724 C 314.0854663434453 198.82914490610673, 317.43920306266403 205.03263814085682, 318.45759930487577 209.75082538451468 C 319.42541556451897 214.23467768206115, 318.35700877412216 214.4433862233669, 303.9826436708786 212.57844394983164 C 297.2912723220047 211.71029977742424, 289.2702983078814 210.99310925146733, 286.15825697282673 210.98468722548293 C 278.51795076490765 210.96401048938466, 277.2949692606027 210.1163083353159, 278.99260298792274 206.01785796687798 C 280.8186468226908 201.6093981754931, 287.3917954855052 195.23370084477943, 291.2639014992646 194.11517796121157 C 296.3564683998836 192.64410444354405, 303.8179347097457 192.8544900868914, 307.1204226608151 194.56227297810045 M 248.83618896666735 213.87759747974766 C 249.57109289833443 214.3434320416401, 250.03232416980669 215.57404129310743, 249.8611473477169 216.6122847052306 C 249.68997052562707 217.6505281173538, 249.98868549062675 219.175, 250.52495838104952 220 C 251.94432168060382 222.18354263854206, 252.46997499680563 253, 251.08785758880708 253 C 250.4895359149632 253, 250 252.63408763507832, 250 252.18686141128512 C 250 251.73963518749193, 248.00120355810463 251.2702570456471, 245.5582301291214 251.14379887385212 C 241.96904651388903 250.9580082333016, 240.90658228630636 251.3060355028941, 240.0230463706334 252.956937462567 C 238.68215274949281 255.46242011198242, 237.37907484868447 255.58067880930858, 236.79382666233118 253.25 C 235.7328479800624 249.02478309279357, 237.76742655550788 214.76167547245763, 239.13058089539254 213.8981348344455 C 240.88440451585404 212.78711026161372, 247.09509561986917 212.7739682549321, 248.83618896666735 213.87759747974766 M 289.5 215.8496800253506 C 290.6 216.20735601140777, 291.63798072310067 217.4, 291.8066238291126 218.5 C 292.9345449458275 225.8570349700429, 297.95742231554993 229.5003334875806, 300.7679270948305 225 C 301.4548884646357 223.9, 302.4631345195828 223, 303.0084738836018 223 C 304.51317047717276 223, 304.13267460850733 228.24049283156785, 302.46819662812953 230.44112963510491 C 299.01113549028196 235.0117734415784, 302.42657416212654 238.8157454000119, 305.95730361239333 234.32715026183348 C 307.5254293974447 232.33360137229673, 308.29531927773724 232.00020380084328, 309.3361012900257 232.86397615214491 C 310.07745578223694 233.47924573340654, 310.93902660103385 233.7276400656329, 311.2507031095743 233.41596355709237 C 311.5623796181148 233.1042870485518, 312.1417052220586 233.87111311755578, 312.53809334056047 235.12002148821227 C 313.1429873672917 237.02587380336215, 312.31402648205403 238.24051411069865, 307.379399505282 242.6788310498253 C 304.14572977737686 245.58726793805602, 301.1359423525313 247.97434604248514, 300.69098300562507 247.98344905966783 C 300.2460236587188 247.99255207685053, 300.1044161499148 248.35993188516164, 300.37629965272725 248.79984863369253 C 300.6481831555397 249.23976538222345, 299.8872408030084 250.21206027853654, 298.68531664710224 250.96050395883276 C 296.6826112788281 252.20759777004747, 296.61627298244804 252.18062862887362, 297.8914435394275 250.6377631426934 C 299.0964047080712 249.17984601222616, 299.0764557977512 249.0334307502717, 297.74259417491794 249.54528148094786 C 296.89543307775256 249.8703676961607, 295.93673820008553 249.7066572519239, 295.6121611134356 249.18148049375492 C 294.8205395298707 247.90060986531878, 297.63088588447414 245.65384094212777, 298.98097171313066 246.4882398719671 C 299.56869151950247 246.85147068816633, 299.9259037139274 246.55271114178254, 299.7747765896306 245.82432976889197 C 299.62364946533376 245.09594839600138, 299.9669864500601 244.58066215002003, 300.53774766680027 244.67924922226672 C 302.2197793266795 244.96978503989084, 302.1169317063164 240.25884851423532, 300.42708608081557 239.61039390444955 C 299.58238727574394 239.28625255936842, 297.9217926390798 239.92659266390442, 296.73163567259144 241.0353925455769 C 295.542857892848 242.14290751934004, 293.9685496794833 242.81817298277997, 293.23317297622543 242.53598246433228 C 292.49779627296755 242.25379194588456, 292.1571001173793 242.4451763351814, 292.47607040825153 242.9612811072141 C 292.7950406991238 243.47738587924678, 292.08910799366475 244.41712709055116, 290.9073310627871 245.04959491011272 C 289.1630928288222 245.98308288386448, 288.90783147182896 245.94546949708422, 289.55121714897814 244.8497682001123 C 289.98713142726086 244.10739569005054, 289.4435028349164 244.2875, 288.3431536104348 245.25 C 287.2428043859532 246.2125, 285.8258257999791 247, 285.1943123082701 247 C 283.8378347769042 247, 280.48033070134534 242.18633596532118, 281.2794364128538 241.38723025381285 C 281.5821306634227 241.0845360032441, 281.160344054441 239.23466836621358, 280.34213283733897 237.27641328263394 C 279.52392162023693 235.31815819905427, 279.1138706277043 232.6824392915927, 279.4309084094885 231.41926015494153 C 279.7479461912727 230.15608101829037, 279.5608435522503 228.8466203776619, 279.0151247672163 228.50934762021166 C 278.45904015678855 228.1656684303465, 278.2676163366067 228.53382205770936, 278.5796280606084 229.34691157693328 C 279.23746626179894 231.0612104496585, 277.42717641482204 232.5002029527493, 276.5 231 C 276.14899186938123 230.4320569143313, 275.37742455551404 230.26673879650352, 274.7854059691839 230.6326264048272 C 274.1933873828538 230.99851401315084, 274.89014199387765 229.31835436637894, 276.3337495492368 226.89893830088965 C 278.45805296443024 223.33870907403858, 279.4286901801408 222.559945831798, 281.4246366716309 222.814409398488 C 284.7336445378907 223.23627538910642, 288.07546078712255 221.36022259552368, 287.35577275602293 219.4847456496805 C 286.6198510365537 217.5669643900686, 281.58273650982426 217.56012063303288, 279.6685558546211 219.4743012882361 C 278.3694874703063 220.77336967255087, 278.1270113918493 220.77336967255087, 277.6285120795312 219.4743012882361 C 277.3173537117616 218.66343557970623, 277.54679139620794 218, 278.13837360052304 218 C 278.72995580483814 218, 278.95495580483816 217.325, 278.63837360052304 216.5 C 278.17389448865697 215.2895868369528, 278.9737354937612 215.0192440154991, 282.78138479633867 215.0996800253506 C 285.3766231583524 215.15450403929347, 288.4 215.49200403929348, 289.5 215.8496800253506 M 309.77230253878577 219.89142859686353 C 308.7687425177951 221.19555741283384, 308.9167094471401 221.17596076699647, 310.5541096222487 219.7878865649002 C 312.825100980773 217.8626977406458, 317 218.3994623528289, 317 220.616631363961 C 317 222.77356680761025, 310.25532919574465 222.34600227270957, 307.27287060078083 220 C 304.24187463450556 217.61581822545247, 302.18365948472444 217.48263150373833, 299.32398029232195 219.48562877813748 C 297.43486819677145 220.80881439576723, 297.13682635428916 220.79894705467328, 296.5982297165704 219.39538671533174 C 295.55126277260945 216.66703459384567, 296.6953406496948 216.34513675269125, 303.94935078905974 217.32707471429245 C 310.2155788851596 218.17530171224246, 310.8708434381088 218.4638718863892, 309.77230253878577 219.89142859686353 M 192.87244471544216 226.75 C 191.62857405255176 228.33605562436583, 191.66394437563417 228.37142594744824, 193.25 227.12755528455784 C 194.91574802019267 225.82118553165972, 195.44547890498055 225, 194.62244471544216 225 C 194.41478930893535 225, 193.62728930893536 225.7875, 192.87244471544216 226.75 M 312.4182125317642 226.6069888041843 C 314.42261532726496 227.37615032580246, 314.4738602652035 228.66666666666666, 312.5 228.66666666666666 C 311.675 228.66666666666666, 311 228.26510901919792, 311 227.77431633895839 C 311 227.28352365871885, 310.58109423525315 227.14086401194695, 310.0690983005625 227.45729490168753 C 309.55710236587186 227.7737257914281, 308.85554471840317 227.5752834388968, 308.51008130618754 227.01631189606246 C 307.81428026785244 225.89048216662883, 309.9642240588302 225.6653050706992, 312.4182125317642 226.6069888041843 M 240.75 229.39204597048584 C 238.7211068854312 230.9321952277806, 238.42924988552954 235.58539433263888, 240.25 237.3637566137566 C 240.9375 238.03525132275132, 242.625 238.58465608465607, 244 238.58465608465607 C 248.87182741166626 238.58465608465607, 250.85814148364037 232.99157005556322, 247.17125932841594 229.65498756211207 C 244.98390868607294 227.6754624368138, 243.11227769920723 227.59882176471922, 240.75 229.39204597048584 M 245 233.5 C 245 234.325, 244.55 235, 244 235 C 243.45 235, 243 234.325, 243 233.5 C 243 232.675, 243.45 232, 244 232 C 244.55 232, 245 232.675, 245 233.5 M 317.42997252767987 243.88669316963978 C 318.23291554164956 245.18588225727203, 315.2928887115184 247.29904916738946, 313.88929637931244 246.4315813997374 C 313.10545449919516 245.94714047601929, 312.9536010560543 246.1159079372788, 313.4502601257242 246.9195191928256 C 314.2714862848988 248.24829103082064, 310.2306592695582 253.26058925715708, 308.9675449417123 252.4799416708713 C 308.5595904784644 252.2278119467219, 308.28750240434135 252.59475005608536, 308.3629047769944 253.295359691679 C 308.43830714964747 253.99596932727266, 306.64073619902945 256.69400240779026, 304.3683026645099 259.290988759496 C 300.5406853600572 263.6652728686757, 300.1941570398057 263.85045961892, 299.6598378154045 261.80721976599125 C 298.88557100551947 258.84641893661814, 301.61070285169325 254.669443144268, 308.50480440523785 248.25 C 313.96051084436607 243.16991856722888, 316.28473480227757 242.0336596047403, 317.42997252767987 243.88669316963978 M 88.65791632324286 245.44907248094148 C 88.2862596732702 246.4175941857252, 88.58240581427481 246.7137403267298, 89.55092751905852 246.34208367675717 C 90.34791738357633 246.03624996993796, 91.0334395461736 246.1716673535143, 91.07431010260798 246.6430111958157 C 91.11518065904237 247.11435503811705, 91.32884401137078 248.4567169052539, 91.54911755222665 249.62603756723087 C 92.55256416964765 254.952827423072, 84.56413241834916 258.1094792055663, 80.86729540169506 253.84699031259066 C 78.53642110205085 251.1594696649674, 78.50365513862847 249.02796321610472, 80.75 246.21663615782097 C 82.82813173285776 243.6158298115977, 89.61415274189103 242.95716031837537, 88.65791632324286 245.44907248094148 M 421.17125932841594 245.65498756211207 C 425.3283606042423 249.41711251117525, 421.9627383061357 256.492969701543, 416.3305207875029 255.8321172509305 C 412.95711114503126 255.43630050170657, 411.0753371337859 253.3930599069202, 411.03180337187047 250.07874067158406 C 410.96291403409197 244.8340467314566, 417.23863117062575 242.09600799290018, 421.17125932841594 245.65498756211207 M 262.6028146054466 254.5926652557793 C 262.30578984842356 255.3666993651007, 262.55113054810744 256, 263.1480161602997 256 C 263.7449017724919 256, 264.0001334440534 256.8914877510139, 263.7151976526585 257.98108389114213 C 263.3442972867786 259.3994090690936, 264.2737900794965 260.89075593101137, 266.9872983868192 263.23108389114213 L 270.7774641962433 266.5 268.72092888103134 270.5 L 266.66439356581947 274.5 265.30989072699583 269.5 C 264.5649141656429 266.75, 263.87244966620744 263.74948489990237, 263.7710807282504 262.8321886664497 C 263.6697117902934 261.9148924329971, 262.55474951545466 260.3893597352317, 261.2933867841643 259.442116004749 C 259.8281157620884 258.34174356255727, 259 256.6758349027235, 259 254.82854254196053 C 259 253.18097798132484, 258.35474923698024 251.6896244571495, 257.5 251.36162639947696 C 255.50286151931016 250.5952524570051, 255.60354552867977 249.0124808955703, 257.75 247.43157938569442 C 259.2876599985674 246.29906572379704, 259.72100709044304 246.56994151249438, 261.32142980910794 249.66400204285839 C 262.3232162041173 251.6007327006435, 262.89983936246966 253.81863114645793, 262.6028146054466 254.5926652557793 M 125.68311403508773 258.1875 C 125.36388766765761 258.98523269689736, 125.12693129003894 258.7482763192787, 125.07894736842105 257.5833333333333 C 125.03552631578947 256.52916666666664, 125.271875 255.93854166666665, 125.60416666666666 256.2708333333333 C 125.93645833333333 256.603125, 125.9719846491228 257.465625, 125.68311403508773 258.1875 M 248.3651856240599 257.5092751905853 C 248.6837254018956 258.33937654540716, 249.29437036377857 258.9111822922079, 249.72217442824422 258.77995462792023 C 250.82271523193685 258.4423669070035, 257 262.25736021686714, 257 263.27462452077486 C 257 263.7384997281611, 257.45 263.8399186938125, 258 263.5 C 258.55 263.1600813061875, 259.01310283635183 263.2460236587188, 259.02911741411515 263.69098300562507 C 259.0451319918785 264.1359423525313, 259.91319052857006 267.6321535495492, 260.95813638454075 271.4603412212204 C 262.00308224051145 275.28852889289163, 262.6384217566909 278.77602889289165, 262.3700019760506 279.2103412212204 C 262.10158219541034 279.64465354954916, 262.3839648916065 280, 262.9975190787088 280 C 263.67234749487056 280, 263.41294644823915 281.1852183391895, 262.34092854668387 283 C 261.36624956696784 284.65, 260.2488042075248 286, 259.85771663681055 286 C 259.46662906609635 286, 258.9795953444336 286.7875, 258.77541947756015 287.75 C 258.48157240286434 289.1352166454617, 257.36100533715785 288.4577618441763, 253.39964687009493 284.5 C 246.72866370206637 277.83507359531114, 244.55237352278976 274.3857480045687, 246.53759590703578 273.6239466973441 C 247.3419181581661 273.31529928977744, 248 272.373646434325, 248 271.53138479633867 C 248 270.6891231583524, 248.675 270, 249.5 270 C 250.33333333333334 270, 251 269.1111111111111, 251 268 C 251 266.9, 251.3375 266.05328947368423, 251.75 266.11842105263156 C 255.10473196879954 266.6481155740211, 255.9349368385265 265.95130795769865, 254.83233331045886 263.53135681693436 C 254.21369930147605 262.17360306624823, 253.32016848889037 261.30212499173905, 252.84670928249068 261.5947388735806 C 252.373250076091 261.88735275542217, 251.71689947465106 261.4258267932423, 251.38815239040184 260.56912562429204 C 251.05940530615266 259.7124244553418, 250.44772463637165 259.2232909571216, 250.0288620131107 259.4821622949138 C 249.60999938984978 259.74103363270603, 248.4624081426154 259.0634490272654, 247.4786592414788 257.97641872726797 C 246.49491034034216 256.8893884272706, 246.16162431684333 256, 246.7380236337036 256 C 247.31442295056385 256, 248.0466458462242 256.6791738357634, 248.3651856240599 257.5092751905853 M 232 261.7920662133289 C 232 266.4587812425812, 231.92152580213022 266.58308907125996, 229 266.5442458616669 C 225.40948523360876 266.49650809480687, 225.2757334289286 266.22667118248484, 228.25 265.03116209636426 C 229.82165281987827 264.3994348515145, 230.00076210207914 264.10766241499476, 228.84408500066246 264.0633863004191 C 227.4482675875472 264.0099562017043, 227.36715747981577 263.6207285280064, 228.32769634077087 261.58536275396943 C 228.95443582746617 260.25731226865264, 229.8069430984219 259.380684273062, 230.22215694289474 259.6373005415457 C 230.63737078736756 259.8939168100294, 230.70910072243583 259.4055035707432, 230.381556798602 258.5519377875762 C 230.05401287476812 257.6983720044093, 230.2841673535143 257, 230.8930111958157 257 C 231.54832660910094 257, 232 258.9552580728962, 232 261.7920662133289 M 329.4588814840624 258.0665311563541 C 329.09634760648424 258.6531232923488, 329.0141975902512 259.3475309235845, 329.2763258924334 259.6096592257667 C 329.5384541946156 259.8717875279489, 330.01939201590386 259.3918485075896, 330.34507660640725 258.54312806941266 C 331.02126064466916 256.78102071163204, 330.4449308428542 256.4710697792438, 329.4588814840624 258.0665311563541 M 126.66228070175438 267.25 C 126.38486842105263 267.9375, 126.15789473684211 267.375, 126.15789473684211 266 C 126.15789473684211 264.625, 126.38486842105263 264.0625, 126.66228070175438 264.75 C 126.93969298245615 265.4375, 126.93969298245615 266.5625, 126.66228070175438 267.25 M 284.63243585473214 265.7857142857143 C 284.36535688102236 266.21785714285716, 284.9807607463929 266.57142857142856, 286 266.57142857142856 C 287.0192392536071 266.57142857142856, 287.63464311897764 266.21785714285716, 287.36756414526786 265.7857142857143 C 287.1004851715581 265.3535714285714, 286.48508130618757 265, 286 265 C 285.51491869381243 265, 284.8995148284419 265.3535714285714, 284.63243585473214 265.7857142857143 M 245.5 268 C 246.4954863183233 269.1, 247.08497512422417 270, 246.80997512422417 270 C 246.53497512422416 270, 245.4954863183233 269.1, 244.5 268 C 243.5045136816767 266.9, 242.91502487577583 266, 243.19002487577583 266 C 243.46502487577584 266, 244.5045136816767 266.9, 245.5 268 M 278 271.1069888041843 C 278 271.59814496188295, 278.474691233975 272, 279.0548694088334 272 C 279.8363293357874 272, 288.67307848844735 277.4827195527849, 292.77353859725406 280.5116839346855 C 293.5067829697601 281.0533234162598, 291.6706088328459 283.9144590518547, 290.8967119678267 283.43616448548585 C 290.40516681965954 283.13237287691345, 290.07361966305916 283.697457482354, 290.1599405087147 284.69190805313167 C 290.5377603561439 289.04454338789566, 289.9871974052482 290.9323175907559, 288.5057435676458 290.3638304131812 C 287.683902529851 290.0484604164034, 287.3034313535854 289.31805475102146, 287.6602520648333 288.74070671233244 C 288.03020739806243 288.14210640884835, 287.831204827525 287.98628716497655, 287.19719092791104 288.3781293042778 C 286.58568659135597 288.75605976853683, 283.5911577676216 287.65763226777347, 280.54268243072363 285.93717930258146 C 275.293424624692 282.97468160803425, 273.17198242057515 281.0845462282118, 276.5519377875762 282.381556798602 C 277.4964107927125 282.7439850966409, 277.84824147692495 282.56346654595706, 277.4507871520858 281.9203719393916 C 277.0915885193991 281.33917634299206, 276.1446381561629 281.1142555286119, 275.34645301156087 281.4205479074358 C 274.54826786695884 281.7268402862596, 272.7980200737661 281.25853846381216, 271.45701347113265 280.37987719088596 L 269.0188196481626 278.78231124011097 271.00940982408133 275.98678512065567 C 272.1042344208366 274.44924575495526, 273 272.78822572593026, 273 272.29562950060017 C 273 270.7215723933459, 275.19672162906323 269.1382587647566, 276.621855038117 269.6851337660673 C 277.37983476715266 269.975997879333, 278 270.6158326464857, 278 271.1069888041843 M 236.592267713009 273.3729344305905 C 237.51694981939153 275.36858193178875, 237.43380943194157 275.66469861018857, 236.05038608792984 275.3029252789121 C 235.15160395198131 275.0678884705328, 234.3505504793878 274.0035788611679, 234.27026725994426 272.9377928136567 C 234.07078047300024 270.28954034369605, 235.26749093852456 270.5138032314498, 236.592267713009 273.3729344305905 M 128.68311403508773 277.1875 C 128.36388766765762 277.98523269689736, 128.12693129003895 277.7482763192787, 128.07894736842104 276.58333333333337 C 128.03552631578947 275.5291666666667, 128.271875 274.9385416666667, 128.60416666666669 275.27083333333337 C 128.93645833333335 275.603125, 128.97198464912282 276.465625, 128.68311403508773 277.1875 M 244 280.8727707365036 C 244 281.91808122660734, 234.96171108234162 282.906498979105, 231.48338415776513 282.24157465640116 C 230.13034304829122 281.98292445967854, 229.26962244275074 281.3727587178745, 229.5706717010085 280.8856507857255 C 230.28046881290516 279.73717493356014, 244 279.72492847043105, 244 280.8727707365036 M 252 281.37755528455784 C 252 281.5852106910646, 252.7875 282.37271069106464, 253.75 283.12755528455784 C 255.33605562436583 284.37142594744824, 255.37142594744824 284.3360556243658, 254.12755528455784 282.75 C 252.82118553165972 281.08425197980733, 252 280.5545210950195, 252 281.37755528455784 M 268.58281304134846 286.64933689800904 C 267.5305601040157 289.811359596026, 264.32911420383755 293.3214377529019, 263.1576934025286 292.5974598825643 C 262.34150029734246 292.093024802176, 262.35843820194214 291.3989115193226, 263.22063006914925 290.01832289292463 C 263.8694500340553 288.97939699000364, 264.7291403825234 288.3325995502197, 265.13105306574494 288.5809952489602 C 265.5329657489665 288.8293909477008, 266.14445528159683 288.5752834388968, 266.48991869381246 288.01631189606246 C 266.8353821060281 287.4573403532281, 266.63766309366036 287, 266.05054311077316 287 C 265.34990176620965 287, 265.4069288491154 286.32126565125037, 266.216485507464 285.0249593910658 C 267.67223158181287 282.6939394062917, 269.4849835788365 283.9383121854047, 268.58281304134846 286.64933689800904 M 246.79873341885138 291.0548886059753 C 247.0951582686788 294.5823055425577, 247.0700427347133 294.60657560247444, 243.54873341885138 294.1954825840909 C 240.24868171718066 293.8102201452728, 240 293.53914812737315, 240 290.3272354940274 C 240 287.03285661685646, 240.1501509233354 286.8877602828148, 243.25 287.1866415159119 C 246.18102646559504 287.46924521132144, 246.52931940137105 287.84889704094275, 246.79873341885138 291.0548886059753 M 261.40303278630097 298.43319778425905 C 261.6953361588295 299.5509675979225, 261.4670895771669 300.9232675656902, 260.89581816038424 301.48275326818725 C 260.2235180905967 302.1411833344983, 259.9548610125994 302.14726682890165, 260.1341742323102 301.5 C 260.28654148865223 300.95, 259.6237036800167 299.0212086200767, 258.66120132423134 297.21379693350383 C 256.9402509174189 293.98215198366165, 256.9440724599079 293.9481249059314, 258.89138457498075 295.1642414495757 C 259.9804877186783 295.8443976199881, 261.1107294137724 297.31542797059564, 261.40303278630097 298.43319778425905 M 135.9693744509659 298.5 C 135.9693744509659 299.05, 135.53315594803124 298.825, 135 298 C 134.46684405196876 297.175, 134.0306255490341 296.05, 134.0306255490341 295.5 C 134.0306255490341 294.95, 134.46684405196876 295.175, 135 296 C 135.53315594803124 296.825, 135.9693744509659 297.95, 135.9693744509659 298.5 M 306.3333333333333 314.7002496817611 C 306.3333333333333 316.36758486094436, 306.804365802445 316.3384913404122, 308.5814642202509 314.5613929226063 C 309.83294032344253 313.30991681941464, 309.78028974862735 313.14084803955564, 308.17670231548897 313.26164260436735 C 307.1628493753034 313.33801382190256, 306.3333333333333 313.9853870067297, 306.3333333333333 314.7002496817611 M 317.61069309198984 317.4140449143565 C 318.15887280763087 318.8529684592924, 318.0111113335385 319.12490117053704, 317.01543024711043 318.50953641716904 C 316.10102417610676 317.94440238576954, 315.92855822087034 318.07538777877653, 316.4583592135001 318.9326237921249 C 317.0109461790705 319.826728284158, 317.53002465827103 319.86997534172895, 318.31286771068756 319.0871322893124 C 319.0957107631041 318.3042892368959, 319.04753608887137 317.6501239546841, 318.140754347692 316.75 C 317.1306067120197 315.7472690854433, 317.02575250247855 315.8786273083763, 317.61069309198984 317.4140449143565 M 265.8125 324.68311403508767 C 266.534375 324.97198464912276, 267.396875 324.9364583333333, 267.72916666666663 324.60416666666663 C 268.0614583333333 324.271875, 267.4708333333333 324.03552631578947, 266.41666666666663 324.07894736842104 C 265.2517236807213 324.1269312900389, 265.01476730310264 324.3638876676576, 265.8125 324.68311403508767 M 329.57142857142856 331.57142857142856 C 327.28556649683054 333.8572906460267, 327.64343161791845 334.63266507505045, 330 332.5 C 331.1 331.5045136816767, 332 330.53476927872623, 332 330.34501243788793 C 332 329.6018660187251, 331.0727189357303 330.0701382071269, 329.57142857142856 331.57142857142856 M 322.0200559771454 338.4758340259209 C 321.2313073132046 339.4262180251414, 321.15544469826585 340, 321.81853829018286 340 C 323.02709295370676 340, 324.4361337080667 338.10280037473336, 323.74263620290014 337.40930286956683 C 323.49093705315136 337.15760371981804, 322.71577595156174 337.6375427401774, 322.0200559771454 338.4758340259209 M 312.15869732607723 346 C 309.88093850566514 347.65, 307.5634211807656 349, 307.00865882630035 349 C 306.45389647183515 349, 306 349.39458518305395, 306 349.8768559623421 C 306 350.9000336174359, 297.4884961407413 354.71515091845714, 291 356.6003164061823 C 288.525 357.31940207425, 283.35 358.87836983947415, 279.5 360.0646892177915 C 274.1966503453316 361.6988363516424, 268.5007527574327 362.3963076586224, 256 362.94229989479055 L 239.5 363.6629662475762 254 363.8141195000135 C 268.23775721935976 363.96253903871127, 273.2526997066793 363.313296147867, 286.7097191270504 359.579464235582 C 293.3480637830888 357.7375657923101, 310.8762764884582 349.3119601487112, 313 346.94203550178605 C 313.275 346.6351550277684, 314.61262780953246 345.62265502776836, 315.9725062434054 344.69203550178605 C 317.3323846772784 343.76141597580374, 317.962402002178 343, 317.3725447431823 343 C 316.78268748418657 343, 314.4364561464893 344.35, 312.15869732607723 346 M 188 354.570367516976 C 188 354.84536751697595, 187.1 354.5887021343368, 186 354 C 184.9 353.4112978656632, 184 352.704632483024, 184 352.429632483024 C 184 352.15463248302405, 184.9 352.4112978656632, 186 353 C 187.1 353.5887021343368, 188 354.295367516976, 188 354.570367516976 M 137.37206057480756 364.20701033846245 C 137.06949681329226 364.69656878835826, 136.16262532055077 364.54993017212666, 135.35679059093758 363.88114674683663 C 134.14660509173885 362.8767819885953, 132.79104090314368 363.7559896384239, 127.56716190930952 368.9334350735952 C 124.08870086402726 372.3809770786024, 120.96493477471975 374.7522802680483, 120.62545948862618 374.20299771680834 C 120.28598420253259 373.6537151655683, 122.73104448113841 370.421662002489, 126.0589267744169 367.02065735440976 C 130.5640993673257 362.41649423246616, 131.84240872761063 360.51504042051215, 131.06348686751497 359.57649699556436 C 130.48811262544044 358.8832134462786, 130.3213605098966 358.01197282343674, 130.6929266107509 357.64040672258244 C 131.60562826550918 356.72770506782416, 138.06790705028178 363.08110709019337, 137.37206057480756 364.20701033846245 M 374.5598606124893 364.1450572351567 C 380.17120411786976 369.4520321938476, 380.8893374393785 371.2446529077997, 378.6079540295142 374.25 C 376.46627124727036 377.0713145121514, 374.2199756032571 376.32127111078927, 368.4401393875107 370.8549427648433 C 362.7123566846029 365.4378444631607, 361.5214621162687 361.96054948713936, 364.75 360.080098799472 C 367.7397865061218 358.3387080232492, 368.9513270821505 358.8407398338166, 374.5598606124893 364.1450572351567 M 366 361.9796026745763 C 364.77459805663767 362.75485495047343, 365.49916519640686 363.9405176998639, 369.9579694152312 368.456320484828 C 373.52957145204965 372.0735796496407, 375.75530291026513 373.64469708973485, 376.3978465910544 373.00215340894556 C 377.7087444333731 371.69125556662686, 378.05493236969374 369, 376.9126610318167 369 C 376.4119568393726 369, 374.14751265270024 367.2, 371.8805628392115 365 C 369.6136130257228 362.8, 367.7005978268367 361.00689074853267, 367.6294179527979 361.01531277451704 C 367.558238078759 361.0237348005015, 366.825 361.4576652555281, 366 361.9796026745763 M 231 369.11753265052744 C 239.020654144864 370.47786562279316, 265.24284180085556 370.41435460376573, 269.99339811320567 369.02308933092337 C 274.49668584641455 367.7042400373064, 277.2001459173764 367.65458547628486, 275 368.9311328705455 C 269.13505710456667 372.3340333379749, 241.41858346483608 373.08352672797946, 230 370.1479977209808 C 221.33900899941318 367.9214001408281, 221.70766097118735 367.54151716076103, 231 369.11753265052744 M 343.1292735142948 381.71008137608754 C 341.07946068973223 383.38474300972126, 341.04079272478043 383.64514667134944, 342.52876754542757 385.75409955282487 C 343.72045737865454 387.4431185286406, 344.730941245483 387.8546494818895, 346.55957540722034 387.3956915229502 C 349.19527318675733 386.7341734902083, 349.99428138992783 388.4044808229855, 347.5 389.36162639947696 C 345.3985281965792 390.16803679442603, 345.63153816983237 391.97888791211557, 348.1867560611953 394.69879271743713 C 349.6714378587271 396.2791640701621, 350.0464318884379 397.35356811156214, 349.35475282424875 398.0452471757513 C 348.50644093263793 398.8935590673621, 339.98390965142204 387.953881693574, 338.1282222465609 383.63466673968264 C 337.5479348506538 382.28401576722314, 343.36880371415236 378.02163350171014, 344.41008137608753 379.03472030968317 C 344.95096155600504 379.56095706189586, 344.4313642902409 380.64629572704877, 343.1292735142948 381.71008137608754 M 160.4375482464598 382.3318816166683 C 161.6368602089861 384.2331859500001, 159.60945789239733 388.5917607680431, 154.82690137900082 394.39383101336455 C 151.57250059640478 398.3419834072065, 149.58963123088904 398.84358405441156, 146.89099684939862 396.4013535044747 C 144.63802183867784 394.36243914202305, 145.6242186028734 391.50703861701584, 151.07588998881 384.28455642988536 C 155.2182245912132 378.7967095365145, 157.86003531406934 378.2456749742784, 160.4375482464598 382.3318816166683 M 156.7583227417225 381.8304515969709 C 152.60400797786463 383.47598213832487, 146.47473453680982 396, 149.8237241442393 396 C 151.1786797998171 396, 158.713949662154 384.7375735763681, 158.68880542605484 382.75 C 158.67662910839135 381.7875, 158.62916666666666 381.03162836817467, 158.58333333333331 381.07028526261035 C 158.5375 381.1089421570461, 157.71624523377514 381.4510170075083, 156.7583227417225 381.8304515969709 M 187.77749375659457 396.55670396864906 C 190.23147513502946 398.27553943295226, 190.60554977824648 400.9810326375168, 188.8502959998886 404.31574145408933 C 187.22446812796207 407.4045612051654, 185.89693777990982 408.07983416992164, 182.75 407.4187703014368 C 180.79313623973434 407.00770023334786, 180 407.24150087573327, 180 408.22941509907605 C 180 410.11749026693894, 177.3220895728878 413.6554229062211, 176.50866875045304 412.8420020837864 C 175.55634838012276 411.88968171345607, 183.02284573952753 395, 184.39616264792247 395 C 185.03351632381913 395, 186.55511532272158 395.7005167858921, 187.77749375659457 396.55670396864906 M 320.4287823724937 406.9695193480004 C 320.134814118155 407.77775498940065, 320.2028180393561 408.1305152939772, 320.57990219738497 407.7534311359484 C 320.9569863554138 407.3763469779195, 322.105770062014 408.13604145298126, 323.13275487871874 409.4416410805301 C 325.39212494639736 412.3139646737077, 325.46292812626456 413, 323.5 413 C 322.17266969131293 413, 321.5808651901961 411.8666554529329, 321.850934956969 409.8419319711982 C 321.89921234119674 409.4799945553572, 320.6473932032448 409.8280586070079, 319.0691146504091 410.615407641533 C 316.9618231926424 411.6666630690078, 316.3368240468072 412.5720132173548, 316.71639000476955 414.02347567033473 C 317.0033241248058 415.12071343092646, 316.7365124748636 416, 316.116631363961 416 C 315.50248411378243 416, 314.93145851721164 414.9875, 314.8476855938036 413.75 C 314.65342959179856 410.88043555481056, 314.44885365933624 409.8530588876665, 313.70271934210916 408 C 313.3705330226083 407.175, 312.58536734913446 404.4990593825526, 311.95790673438944 402.0534652945613 C 310.9514858101655 398.13083333253286, 311.02846669527787 397.4523530053219, 312.6112687975072 396.2949798507491 C 314.2181338436084 395.1200114420265, 314.747822264645 395.5320738024396, 317.6843692248172 400.2415145561877 C 319.487764710378 403.13368155028445, 320.72275062683235 406.1612837066002, 320.4287823724937 406.9695193480004 M 183.88247926064713 399.9072755604966 C 183.2899630322715 401.60696872560965, 182.35411650605803 402.7188560367212, 181.80282031350612 402.3781362518557 C 181.21073640421963 402.0122082717248, 181.2513641965686 402.60116120573906, 181.90207997679335 403.8170347630068 C 182.5079689841532 404.94914872900534, 183.871689551548 405.81003985454765, 184.9325701265596 405.73012615310074 C 185.99345070157116 405.6502124516539, 186.64680910725733 405.23754212540035, 186.38447769475107 404.81308098364843 C 186.12214628224478 404.38861984189657, 186.39984001870243 403.1214091828817, 187.0015748868791 401.9970572969487 C 187.85466338232933 400.4030468623638, 187.75029139487953 399.6074342520224, 186.5277098888107 398.3848527459536 C 185.10380536247297 396.96094821961583, 184.860824656725 397.1007921205544, 183.88247926064713 399.9072755604966 M 314.6258090598434 404.1468710408949 C 316.5020710185748 410.5067271010478, 316.22170590774925 410.0990461910041, 317.9742748286052 409.01589903028844 C 319.168283348122 408.2779611823701, 319.0852447836838 407.568578278509, 317.4453144821467 404.4970898584668 C 314.1381488202628 398.30297232547343, 312.85473241102466 398.14355550941053, 314.6258090598434 404.1468710408949 M 381.55887036489514 405.53180337187047 C 380.49124906558745 406.3393115173417, 380.09864894363847 407, 380.68642564945293 407 C 381.2742023552674 407, 382.3153108130136 406.325, 383 405.5 C 384.55720418204965 403.6236837464231, 384.0673374106314 403.6344943041404, 381.55887036489514 405.53180337187047 M 219.46522856957034 406.3509160912471 C 221.51800141038868 407.8519402401619, 221.28038170385753 412.92216303952944, 218.80145876802504 420.51413862214145 C 217.34667063749146 424.9695881261316, 213.46105593380724 426.46539098905225, 211.01093249627172 423.51317285214316 C 208.99528931943738 421.0844714026467, 211.4363522670531 408.50820217709025, 214.31473405139243 406.49210509737964 C 216.91986252284508 404.6674020881602, 217.1541044597745 404.66098088216665, 219.46522856957034 406.3509160912471 M 215.56603720599426 406.8931495561792 C 214.60823427059182 408.44290726018477, 212.13011533256216 421.4015140361682, 212.6352522074794 422.21884266875514 C 214.1629392586707 424.6906922417557, 215.96948405164903 422.424094317802, 217.3925942703969 416.25 C 218.75383742998588 410.3443129027914, 218.76599225694707 409.36254875136825, 217.48976805717294 408.4011231201172 C 216.68749352693226 407.79674083618164, 216.3240924971517 407.0092408361816, 216.68221021321614 406.6511231201172 C 217.0403279292806 406.29300540405274, 217.05989098080207 406, 216.72568366104161 406 C 216.39147634128116 406, 215.86963543650987 406.4019173002806, 215.56603720599426 406.8931495561792 M 286.00702420109894 407.50846364455106 C 286.7682435314432 408.4256768260505, 287.036856553163 410.38545379909, 286.69233948292714 412.50846364455106 C 286.38071039034185 414.428808640048, 286.5262975971108 416, 287.01586660908026 416 C 288.10453672822683 416, 290.13363955511056 422.9747496632148, 289.39341042805074 424.1724655502602 C 288.4557111911095 425.68969478685597, 287.24530228206964 424.1211105895418, 286.568049929916 420.51104518562886 C 286.084312244718 417.9325016392695, 285.39530767725313 417, 283.9738173113343 417 C 282.2551141731531 417, 282.1073642806769 417.5041652947365, 282.6550543518756 421.5 C 283.5720905144114 428.19050822159727, 281.37598094721847 427.1628476000925, 279.98380578834536 420.25 C 279.34691138612 417.0875, 278.46734689780476 412.83255349197873, 278.0292180365338 410.7945633155083 C 277.49076706399546 408.2899171039787, 277.6000057089705 406.9382382902006, 278.3663100534751 406.62351068392934 C 280.82341513801833 405.61435706609984, 284.8191345131564 406.07714413318854, 286.00702420109894 407.50846364455106 M 280.3930111958157 409.5817874682358 C 280.72685503811704 410.4517705757655, 281 412.0267705757655, 281 413.0817874682358 C 281 415.12091992326896, 283.4398173896468 415.715411497833, 284.53512624394125 413.94316454340594 C 285.79896280612013 411.8982340295758, 284.0534529889828 408, 281.87395916760073 408 C 280.38087656979576 408, 279.95895378994936 408.45065200023186, 280.3930111958157 409.5817874682358 M 252.8 410.2 C 254.21798697002305 411.617986970023, 254.40638459208122 415, 253.06738767055708 415 C 252.55445088936347 415, 251.84912643761277 414.1, 251.5 413 C 251.15087356238723 411.9, 250.2016201963603 411, 249.3905480754957 411 C 248.1927093904974 411, 247.97070009328414 412.4548910159033, 248.20793574605275 418.75 C 248.49997138801427 426.49924077360913, 249.3130138220954 428.0362049476046, 251.3837186306339 424.75345604778374 C 252.19986969273452 423.45958789711796, 252.1633212846586 422.49116567897914, 251.24270512633458 421.01702489222197 C 249.57443549118392 418.34570059463283, 249.66120881838233 418, 252 418 C 253.62607122515735 418, 254 418.6666666666667, 254 421.56574145408933 C 254 426.1036664197158, 252.45574953017731 429, 250.03624481294057 429 C 246.3093302547939 429, 245 426.3036209083576, 245 418.6285714285714 C 245 410.98962403128075, 245.92986879800216 409, 249.5 409 C 250.655 409, 252.14 409.54, 252.8 410.2" stroke="none" fill="#000000" fill-rule="evenodd" data-fill-layer-id="trace-color"/>
</svg>